<svg width="1144" height="339" viewBox="0 0 1144 339" fill="none" xmlns="http://www.w3.org/2000/svg">
<g clip-path="url(#clip0_3_2)">
<path d="M156.223 99L272 156.722V272.165L160.612 325V164.662L199.633 196.424V275.83L207.437 270.943V200.395L232.269 220.857L232.979 259.949L240.073 256.895L240.783 171.992L154.936 129.846L70.5076 171.381V257.505L79.0214 259.949L79.7309 220.857L103.853 201.616V271.554L111.657 275.219L112.367 196.424L150.679 164.662V325L40 272.165V156.722L156.223 99Z" fill="#1A75B9"/>
<path d="M156.223 54.78L272 112.501V138.501L154.936 85.6259L40 142.501V112.501L156.223 54.78Z" fill="#1A75B9"/>
<path d="M156.223 11L272 68.7215V94.7214L154.936 41.8458L40 98.7214V68.7215L156.223 11Z" fill="#1A75B9"/>
<path d="M232.126 220.857L207.051 199.784V271.249L233.201 259.949L232.126 220.857Z" fill="#FF1E1E"/>
<path d="M200.245 196.424L160.125 164.357L160.834 293.238L199.855 275.525L200.245 196.424Z" fill="#FF1E1E"/>
<path d="M79.5989 220.857L104.431 201.005V271.554L78.5347 259.949L79.5989 220.857Z" fill="#FF1E1E"/>
<path d="M112.59 195.508L150.901 164.357V293.849L111.171 274.914L112.59 195.508Z" fill="#FF1E1E"/>
<path d="M304.866 155.834C304.866 155.805 304.852 155.776 304.823 155.747C304.823 155.718 304.823 155.689 304.823 155.66C304.823 155.168 305.083 154.921 305.605 154.921C305.866 154.921 306.155 155.052 306.474 155.312C308.039 156.79 309.777 157.963 311.689 158.833C313.601 159.702 315.687 160.136 317.947 160.136C318.555 160.136 319.25 160.078 320.033 159.962C320.815 159.818 321.554 159.6 322.249 159.311C322.944 158.992 323.524 158.586 323.987 158.094C324.48 157.601 324.726 156.978 324.726 156.225C324.726 155.385 324.523 154.632 324.118 153.965C323.712 153.299 323.176 152.734 322.51 152.271C322.249 152.097 321.858 151.807 321.336 151.401C320.815 150.996 320.221 150.532 319.555 150.011C318.888 149.489 318.193 148.939 317.469 148.359C316.744 147.751 316.049 147.186 315.383 146.665C314.745 146.114 314.166 145.622 313.645 145.187C313.123 144.752 312.732 144.419 312.471 144.188C310.762 142.913 309.4 141.624 308.386 140.32C307.401 139.016 306.648 137.654 306.126 136.235C305.605 134.815 305.272 133.352 305.127 131.846C304.982 130.31 304.91 128.688 304.91 126.979C304.91 124.429 305.518 122.01 306.735 119.721C307.952 117.432 309.661 115.448 311.863 113.768C314.094 112.058 316.759 110.711 319.859 109.726C322.959 108.712 326.406 108.205 330.202 108.205C330.665 108.205 331.361 108.263 332.288 108.379C333.215 108.466 334.229 108.625 335.33 108.857C336.459 109.089 337.604 109.407 338.763 109.813C339.922 110.219 340.979 110.74 341.935 111.377C342.254 111.609 342.5 111.841 342.674 112.073C342.877 112.305 343.007 112.667 343.065 113.159C343.21 115.506 343.326 117.824 343.413 120.112C343.5 122.372 343.615 124.777 343.76 127.326C343.76 127.819 343.659 128.152 343.456 128.326C343.253 128.471 342.993 128.543 342.674 128.543C342.355 128.543 342.109 128.456 341.935 128.282C341.095 127.442 340.226 126.616 339.328 125.805C338.43 124.994 337.488 124.284 336.503 123.676C335.518 123.038 334.46 122.531 333.331 122.155C332.23 121.778 331.027 121.59 329.724 121.59C328.941 121.59 328.159 121.662 327.377 121.807C326.595 121.923 325.885 122.155 325.248 122.502C324.61 122.85 324.089 123.328 323.683 123.937C323.306 124.545 323.118 125.313 323.118 126.24C323.118 127.225 323.234 128.079 323.466 128.804C323.727 129.528 324.349 130.209 325.334 130.846L335.764 137.93C337.676 139.291 339.226 140.653 340.414 142.015C341.602 143.347 342.529 144.68 343.195 146.013C343.862 147.345 344.311 148.664 344.542 149.967C344.803 151.242 344.934 152.502 344.934 153.748C344.934 155.776 344.6 157.688 343.934 159.484C343.268 161.281 342.355 162.946 341.196 164.482C340.037 165.988 338.676 167.35 337.111 168.567C335.576 169.755 333.924 170.783 332.157 171.652C330.39 172.493 328.55 173.13 326.638 173.564C324.755 174.028 322.901 174.26 321.076 174.26C319.656 174.26 318.251 174.231 316.86 174.173C315.499 174.144 314.166 174.028 312.862 173.825C311.559 173.651 310.298 173.362 309.082 172.956C307.865 172.579 306.706 172.043 305.605 171.348L304.866 155.834ZM355.276 108.813C355.276 108.64 355.262 108.48 355.233 108.335C355.233 108.191 355.233 108.046 355.233 107.901C355.233 107.64 355.334 107.423 355.537 107.249C355.74 107.046 356.232 106.843 357.015 106.641L369.226 103.729C369.545 103.671 369.965 103.541 370.486 103.338C371.008 103.135 371.515 103.034 372.007 103.034C373.021 103.034 373.528 103.497 373.528 104.424C373.528 104.482 373.485 105.076 373.398 106.206C373.311 107.336 373.195 108.741 373.05 110.421C372.905 112.102 372.746 113.941 372.572 115.94C372.398 117.91 372.225 119.794 372.051 121.59C371.877 123.386 371.718 124.965 371.573 126.327C371.428 127.659 371.312 128.528 371.225 128.934C372.587 128.181 374.006 127.471 375.484 126.805C376.961 126.138 378.439 125.559 379.917 125.066C381.423 124.574 382.915 124.197 384.393 123.937C385.899 123.647 387.348 123.502 388.738 123.502C390.506 123.502 392.157 123.763 393.692 124.284C395.228 124.777 396.561 125.617 397.69 126.805C398.849 127.964 399.747 129.499 400.385 131.411C401.051 133.294 401.384 135.612 401.384 138.364C401.384 139.06 401.37 139.784 401.341 140.537C401.312 141.261 401.254 142.015 401.167 142.797L399.298 160.571C399.153 161.788 399.067 163.062 399.038 164.395C399.009 165.699 398.994 167.046 398.994 168.437C398.994 168.668 398.994 168.871 398.994 169.045C399.023 169.19 399.038 169.32 399.038 169.436C399.038 169.697 398.922 169.9 398.69 170.044C398.487 170.189 398.009 170.378 397.256 170.609L386.609 173.564C386.29 173.651 385.87 173.782 385.349 173.956C384.827 174.158 384.32 174.26 383.828 174.26C383.335 174.26 382.958 174.144 382.698 173.912C382.437 173.709 382.307 173.289 382.307 172.652C382.509 170.479 382.669 168.726 382.785 167.394C382.93 166.061 383.031 165.003 383.089 164.221C383.176 163.41 383.248 162.802 383.306 162.396C383.364 161.961 383.408 161.585 383.437 161.266C383.465 160.918 383.509 160.542 383.567 160.136C383.625 159.702 383.683 159.079 383.741 158.268C383.828 157.456 383.929 156.384 384.045 155.052C384.19 153.719 384.364 151.966 384.566 149.793C384.682 148.635 384.798 147.49 384.914 146.36C385.059 145.201 385.131 144.144 385.131 143.188C385.131 141.971 385.059 140.87 384.914 139.885C384.798 138.871 384.566 138.017 384.219 137.321C383.9 136.597 383.451 136.032 382.872 135.626C382.292 135.221 381.553 135.018 380.655 135.018C379.989 135.018 379.076 135.163 377.917 135.453C376.788 135.742 375.643 136.22 374.484 136.887C373.354 137.553 372.34 138.437 371.442 139.538C370.573 140.61 370.081 141.942 369.965 143.536C369.733 145.766 369.545 147.592 369.4 149.011C369.284 150.431 369.183 151.604 369.096 152.531C369.009 153.458 368.936 154.197 368.878 154.748C368.849 155.298 368.82 155.805 368.792 156.269C368.763 156.413 368.719 156.776 368.661 157.355C368.603 157.905 368.531 158.572 368.444 159.354C368.357 160.136 368.27 160.976 368.183 161.875C368.096 162.744 368.009 163.569 367.922 164.352C367.864 165.134 367.806 165.815 367.749 166.394C367.72 166.944 367.705 167.292 367.705 167.437C367.705 167.669 367.705 167.872 367.705 168.045C367.734 168.19 367.749 168.335 367.749 168.48C367.749 168.712 367.633 168.915 367.401 169.088C367.198 169.233 366.72 169.407 365.967 169.61L354.625 173.564C354.306 173.68 353.886 173.825 353.364 173.999C352.843 174.173 352.336 174.26 351.843 174.26C351.409 174.26 351.047 174.129 350.757 173.869C350.467 173.637 350.322 173.231 350.322 172.652L355.276 108.813ZM452.403 163.265C452.374 163.381 452.359 163.497 452.359 163.613C452.359 163.7 452.359 163.787 452.359 163.874C452.359 164.598 452.475 165.206 452.707 165.699C452.939 166.162 453.185 166.553 453.446 166.872C453.736 167.162 453.996 167.408 454.228 167.611C454.46 167.785 454.576 167.944 454.576 168.089C454.576 168.494 454.141 168.871 453.272 169.219L441.582 174.216C441.553 174.245 441.452 174.26 441.278 174.26C441.046 174.26 440.814 174.057 440.583 173.651C440.351 173.246 440.119 172.724 439.887 172.087C439.684 171.479 439.482 170.827 439.279 170.131C439.105 169.407 438.946 168.741 438.801 168.132C436.976 170.247 435.006 171.797 432.891 172.782C430.776 173.767 428.675 174.26 426.589 174.26C424.156 174.26 421.78 173.724 419.462 172.652C417.145 171.58 415.088 170.059 413.292 168.089C411.495 166.09 410.047 163.685 408.946 160.875C407.874 158.065 407.338 154.907 407.338 151.401C407.338 147.258 407.932 143.478 409.12 140.059C410.336 136.64 411.973 133.7 414.03 131.237C416.087 128.775 418.477 126.877 421.201 125.544C423.953 124.183 426.865 123.502 429.936 123.502C432.108 123.502 434.165 123.951 436.106 124.849C438.048 125.718 439.887 126.848 441.625 128.239C441.799 127.37 441.901 126.674 441.93 126.153C441.959 125.631 442.017 125.226 442.104 124.936C442.219 124.646 442.422 124.458 442.712 124.371C443.002 124.255 443.48 124.168 444.146 124.11C446.232 123.821 448.303 123.56 450.36 123.328C452.446 123.067 454.619 122.879 456.879 122.763L452.403 163.265ZM439.409 146.882C439.699 145.23 439.887 143.681 439.974 142.232C440.09 140.754 440.177 139.407 440.235 138.19C439.771 137.843 439.264 137.481 438.714 137.104C438.192 136.727 437.613 136.38 436.976 136.061C436.367 135.713 435.715 135.438 435.02 135.235C434.354 135.033 433.644 134.931 432.891 134.931C431.326 134.931 430.008 135.438 428.936 136.452C427.893 137.466 427.038 138.712 426.372 140.189C425.735 141.667 425.271 143.231 424.981 144.883C424.721 146.534 424.59 147.997 424.59 149.272C424.59 153.849 425.184 157.21 426.372 159.354C427.589 161.469 429.269 162.526 431.413 162.526C432.282 162.526 433.253 162.28 434.325 161.788C435.397 161.295 436.483 160.614 437.584 159.745L439.409 146.882ZM497.815 136.626C497.207 136.568 496.526 136.51 495.773 136.452C495.02 136.365 494.223 136.322 493.383 136.322C492.108 136.322 490.804 136.438 489.472 136.669C488.168 136.872 486.951 137.292 485.821 137.93C484.691 138.567 483.721 139.451 482.91 140.581C482.098 141.681 481.577 143.116 481.345 144.883C481.142 147.027 480.969 148.794 480.824 150.185C480.708 151.546 480.621 152.676 480.563 153.574C480.505 154.443 480.447 155.153 480.389 155.704C480.36 156.225 480.331 156.718 480.302 157.181C480.302 157.297 480.273 157.616 480.215 158.137C480.186 158.659 480.128 159.267 480.042 159.962C479.955 160.658 479.868 161.411 479.781 162.222C479.723 163.033 479.65 163.787 479.563 164.482C479.477 165.177 479.404 165.786 479.346 166.307C479.317 166.829 479.303 167.147 479.303 167.263C479.303 167.495 479.303 167.698 479.303 167.872C479.332 168.016 479.346 168.161 479.346 168.306C479.346 168.538 479.23 168.741 478.999 168.915C478.796 169.059 478.318 169.233 477.564 169.436L466.048 173.564C465.73 173.68 465.31 173.825 464.788 173.999C464.267 174.173 463.76 174.26 463.267 174.26C462.861 174.26 462.499 174.158 462.181 173.956C461.891 173.753 461.746 173.405 461.746 172.913L465.483 129.847C465.57 128.891 465.672 128.239 465.788 127.891C465.932 127.514 466.266 127.268 466.787 127.152C469.424 126.631 472.147 126.109 474.957 125.588C477.767 125.037 480.491 124.342 483.127 123.502C483.359 123.502 483.489 123.545 483.518 123.632C483.576 123.69 483.605 123.792 483.605 123.937C483.605 123.994 483.59 124.081 483.562 124.197C483.562 124.313 483.518 124.574 483.431 124.979C483.373 125.385 483.272 126.008 483.127 126.848C483.011 127.659 482.837 128.804 482.605 130.281C483.938 129.238 485.401 128.282 486.995 127.413C488.617 126.544 490.239 125.805 491.862 125.197C493.484 124.559 495.049 124.067 496.555 123.719C498.062 123.343 499.38 123.154 500.51 123.154L497.815 136.626ZM533.667 147.273C533.754 146.346 533.841 145.375 533.928 144.361C534.044 143.347 534.174 142.29 534.319 141.189C533.653 139.451 532.711 138.046 531.495 136.974C530.278 135.873 528.757 135.322 526.932 135.322C525.135 135.322 523.614 135.844 522.369 136.887C521.123 137.901 520.123 139.161 519.37 140.667C518.617 142.174 518.066 143.767 517.719 145.448C517.4 147.099 517.241 148.562 517.241 149.837C517.241 151.401 517.328 152.951 517.501 154.487C517.704 156.022 518.008 157.413 518.414 158.659C518.849 159.904 519.414 160.918 520.109 161.701C520.804 162.454 521.673 162.831 522.716 162.831C525.266 162.744 527.337 162.164 528.931 161.092C530.524 160.02 531.799 158.717 532.755 157.181L533.667 147.273ZM548.834 167.611C548.834 167.669 548.819 167.741 548.791 167.828C548.791 167.886 548.791 167.944 548.791 168.002C548.791 168.147 548.791 168.263 548.791 168.35C548.819 168.437 548.834 168.523 548.834 168.61C548.834 168.871 548.733 169.088 548.53 169.262C548.356 169.407 547.878 169.581 547.096 169.784L535.449 173.564C535.131 173.68 534.71 173.825 534.189 173.999C533.667 174.173 533.16 174.26 532.668 174.26C532.262 174.26 531.9 174.158 531.582 173.956C531.292 173.753 531.147 173.376 531.147 172.826C531.147 172.304 531.147 171.884 531.147 171.565C531.176 171.247 531.19 170.957 531.19 170.696C531.219 170.407 531.248 170.102 531.277 169.784C531.335 169.465 531.393 169.045 531.451 168.523C529.278 170.262 527.033 171.652 524.715 172.695C522.427 173.738 520.007 174.26 517.458 174.26C514.677 174.26 512.2 173.593 510.027 172.261C507.883 170.957 506.072 169.204 504.595 167.002C503.117 164.772 501.987 162.237 501.205 159.397C500.452 156.529 500.075 153.545 500.075 150.445C500.075 146.418 500.727 142.753 502.031 139.451C503.363 136.119 505.16 133.28 507.419 130.933C509.679 128.557 512.316 126.732 515.329 125.458C518.342 124.154 521.543 123.502 524.933 123.502C526.758 123.502 528.496 123.98 530.147 124.936C531.828 125.892 533.407 127.123 534.884 128.63C534.971 127.21 535.073 125.675 535.188 124.023C535.304 122.343 535.42 120.648 535.536 118.939C535.652 117.201 535.768 115.491 535.884 113.811C536 112.131 536.101 110.595 536.188 109.205C536.188 108.944 536.275 108.741 536.449 108.596C536.652 108.422 537.144 108.234 537.926 108.031L550.138 105.12C550.456 105.062 550.876 104.931 551.398 104.729C551.919 104.526 552.426 104.424 552.919 104.424C553.296 104.424 553.643 104.511 553.962 104.685C554.31 104.859 554.483 105.192 554.483 105.685C554.483 105.743 554.469 105.873 554.44 106.076C554.44 106.25 554.44 106.365 554.44 106.423L548.834 167.611ZM602.938 163.265C602.909 163.381 602.895 163.497 602.895 163.613C602.895 163.7 602.895 163.787 602.895 163.874C602.895 164.598 603.01 165.206 603.242 165.699C603.474 166.162 603.72 166.553 603.981 166.872C604.271 167.162 604.531 167.408 604.763 167.611C604.995 167.785 605.111 167.944 605.111 168.089C605.111 168.494 604.676 168.871 603.807 169.219L592.117 174.216C592.088 174.245 591.987 174.26 591.813 174.26C591.581 174.26 591.349 174.057 591.118 173.651C590.886 173.246 590.654 172.724 590.422 172.087C590.22 171.479 590.017 170.827 589.814 170.131C589.64 169.407 589.481 168.741 589.336 168.132C587.511 170.247 585.541 171.797 583.426 172.782C581.311 173.767 579.21 174.26 577.125 174.26C574.691 174.26 572.315 173.724 569.998 172.652C567.68 171.58 565.623 170.059 563.827 168.089C562.03 166.09 560.582 163.685 559.481 160.875C558.409 158.065 557.873 154.907 557.873 151.401C557.873 147.258 558.467 143.478 559.655 140.059C560.872 136.64 562.508 133.7 564.565 131.237C566.622 128.775 569.013 126.877 571.736 125.544C574.488 124.183 577.4 123.502 580.471 123.502C582.644 123.502 584.701 123.951 586.642 124.849C588.583 125.718 590.422 126.848 592.161 128.239C592.334 127.37 592.436 126.674 592.465 126.153C592.494 125.631 592.552 125.226 592.639 124.936C592.755 124.646 592.957 124.458 593.247 124.371C593.537 124.255 594.015 124.168 594.681 124.11C596.767 123.821 598.839 123.56 600.896 123.328C602.981 123.067 605.154 122.879 607.414 122.763L602.938 163.265ZM589.944 146.882C590.234 145.23 590.422 143.681 590.509 142.232C590.625 140.754 590.712 139.407 590.77 138.19C590.306 137.843 589.799 137.481 589.249 137.104C588.728 136.727 588.148 136.38 587.511 136.061C586.902 135.713 586.25 135.438 585.555 135.235C584.889 135.033 584.179 134.931 583.426 134.931C581.861 134.931 580.543 135.438 579.471 136.452C578.428 137.466 577.574 138.712 576.907 140.189C576.27 141.667 575.806 143.231 575.517 144.883C575.256 146.534 575.125 147.997 575.125 149.272C575.125 153.849 575.719 157.21 576.907 159.354C578.124 161.469 579.804 162.526 581.948 162.526C582.817 162.526 583.788 162.28 584.86 161.788C585.932 161.295 587.018 160.614 588.119 159.745L589.944 146.882ZM672.991 114.767C672.991 113.724 673.078 113.014 673.251 112.638C673.454 112.232 673.845 111.957 674.425 111.812L689.374 108.205C689.751 108.089 690.142 108.031 690.547 108.031C690.953 108.031 691.228 108.162 691.373 108.422C691.518 108.654 691.59 109.147 691.59 109.9L691.069 116.723C690.924 118.722 690.765 120.706 690.591 122.676C690.417 124.646 690.156 126.37 689.809 127.848L689.026 134.019C688.795 135.844 688.577 137.828 688.375 139.972C688.172 142.087 687.954 144.463 687.723 147.099L685.68 168.523C685.651 168.784 685.593 169.045 685.506 169.306C685.419 169.566 685.231 169.755 684.941 169.871C684.739 169.958 684.261 170.146 683.507 170.436C682.783 170.725 681.914 171.058 680.9 171.435C679.886 171.812 678.799 172.203 677.641 172.608C676.482 173.043 675.381 173.434 674.338 173.782C673.295 174.129 672.368 174.419 671.557 174.651C670.745 174.883 670.195 174.999 669.905 174.999C669.5 174.999 669.138 174.883 668.819 174.651C668.529 174.448 668.384 174.042 668.384 173.434C668.384 169.929 668.587 166.351 668.993 162.7C669.398 159.021 669.76 155.37 670.079 151.749C670.137 151.343 670.152 150.967 670.123 150.619C670.123 150.271 670.152 149.895 670.209 149.489H654.304L652.522 168.523C652.493 168.784 652.436 169.045 652.349 169.306C652.291 169.537 652.102 169.726 651.784 169.871C651.668 169.929 651.088 170.146 650.045 170.522C649.031 170.87 647.844 171.29 646.482 171.783C645.149 172.246 643.817 172.71 642.484 173.173C641.18 173.666 640.181 174.042 639.485 174.303C639.138 174.448 638.703 174.593 638.182 174.738C637.689 174.912 637.197 174.999 636.704 174.999C636.299 174.999 635.936 174.883 635.618 174.651C635.328 174.419 635.183 173.999 635.183 173.391C635.183 172 635.227 170.421 635.313 168.654C635.429 166.858 635.56 164.989 635.705 163.048C635.849 161.078 636.023 159.064 636.226 157.007C636.429 154.95 636.632 152.922 636.834 150.923L636.921 149.663C634.575 149.663 632.865 149.605 631.793 149.489C630.75 149.344 630.229 148.997 630.229 148.446C630.229 148.07 630.446 147.577 630.881 146.969C631.46 146.158 632.127 145.187 632.88 144.057C633.662 142.898 634.401 141.768 635.096 140.667C635.82 139.538 636.458 138.538 637.008 137.669C637.588 136.771 637.964 136.191 638.138 135.931L639.138 125.458C639.138 125.4 639.167 124.965 639.225 124.154C639.283 123.343 639.355 122.387 639.442 121.286C639.529 120.156 639.616 118.997 639.703 117.809C639.819 116.621 639.92 115.607 640.007 114.767C640.065 113.753 640.137 113.043 640.224 112.638C640.34 112.232 640.688 111.957 641.267 111.812L656.042 108.205C656.419 108.089 656.81 108.031 657.216 108.031C657.621 108.031 657.897 108.162 658.042 108.422C658.186 108.654 658.259 109.147 658.259 109.9C658.056 111.986 657.897 113.883 657.781 115.593C657.665 117.302 657.535 118.896 657.39 120.373C657.274 121.851 657.143 123.256 656.999 124.588C656.854 125.921 656.651 127.283 656.39 128.673L655.521 135.409L671.296 135.235C671.557 131.382 671.846 128.108 672.165 125.414C672.484 122.72 672.687 120.59 672.773 119.026C672.86 117.548 672.918 116.491 672.947 115.854C672.976 115.216 672.991 114.854 672.991 114.767ZM719.359 174.26C715.274 174.26 711.682 173.593 708.582 172.261C705.511 170.928 702.933 169.161 700.847 166.959C698.761 164.728 697.196 162.179 696.153 159.311C695.11 156.413 694.589 153.415 694.589 150.315C694.589 147.215 695.096 144.274 696.11 141.493C697.124 138.683 698.543 136.177 700.369 133.975C702.194 131.744 704.381 129.89 706.931 128.413C709.48 126.906 712.29 125.892 715.361 125.371C715.825 125.342 716.057 125.24 716.057 125.066C716.057 124.748 716.013 124.458 715.926 124.197C715.868 123.908 715.839 123.661 715.839 123.458C715.839 123.14 715.897 122.923 716.013 122.807C716.129 122.691 716.259 122.633 716.404 122.633C721.938 122.633 726.646 123.27 730.528 124.545C734.41 125.791 737.568 127.5 740.001 129.673C742.435 131.846 744.202 134.41 745.303 137.365C746.404 140.32 746.955 143.492 746.955 146.882C746.955 151.199 746.23 155.052 744.782 158.441C743.333 161.831 741.349 164.699 738.828 167.046C736.337 169.393 733.41 171.174 730.05 172.391C726.718 173.637 723.155 174.26 719.359 174.26ZM711.32 149.837C711.32 151.401 711.479 152.951 711.798 154.487C712.146 156.022 712.696 157.413 713.449 158.659C714.231 159.904 715.245 160.918 716.491 161.701C717.737 162.454 719.287 162.831 721.141 162.831C722.474 162.773 723.633 162.483 724.618 161.961C725.632 161.411 726.501 160.716 727.225 159.875C727.949 159.006 728.543 158.036 729.007 156.964C729.499 155.892 729.876 154.791 730.137 153.661C730.426 152.502 730.629 151.372 730.745 150.271C730.861 149.171 730.919 148.171 730.919 147.273C730.919 145.766 730.687 144.289 730.224 142.84C729.789 141.392 729.137 140.117 728.268 139.016C727.399 137.915 726.312 137.032 725.009 136.365C723.734 135.67 722.257 135.322 720.576 135.322C718.838 135.322 717.375 135.844 716.187 136.887C714.999 137.901 714.043 139.161 713.319 140.667C712.624 142.174 712.117 143.767 711.798 145.448C711.479 147.099 711.32 148.562 711.32 149.837ZM815.791 173.564C815.472 173.651 815.052 173.782 814.53 173.956C814.009 174.158 813.502 174.26 813.009 174.26C812.604 174.26 812.242 174.158 811.923 173.956C811.633 173.753 811.488 173.405 811.488 172.913V172.652C811.691 170.537 811.865 168.828 812.01 167.524C812.155 166.191 812.271 165.119 812.357 164.308C812.444 163.497 812.517 162.889 812.575 162.483C812.633 162.048 812.691 161.657 812.749 161.31C812.806 160.933 812.85 160.527 812.879 160.093C812.937 159.658 813.009 159.05 813.096 158.268C813.183 157.456 813.285 156.399 813.4 155.095C813.545 153.763 813.719 152.024 813.922 149.88C814.038 148.722 814.154 147.577 814.27 146.447C814.414 145.288 814.487 144.231 814.487 143.275C814.487 142.058 814.414 140.957 814.27 139.972C814.154 138.958 813.922 138.104 813.574 137.408C813.256 136.684 812.806 136.119 812.227 135.713C811.648 135.308 810.909 135.105 810.011 135.105C809.46 135.105 808.736 135.221 807.838 135.453C806.969 135.684 806.085 136.104 805.187 136.713C804.289 137.292 803.478 138.075 802.753 139.06C802.029 140.016 801.566 141.232 801.363 142.71V142.884C801.015 146.187 800.696 149.055 800.407 151.488C800.146 153.893 799.914 155.964 799.711 157.703C799.509 159.441 799.335 160.889 799.19 162.048C799.074 163.207 798.973 164.192 798.886 165.003C798.799 165.786 798.726 166.438 798.668 166.959C798.639 167.48 798.625 167.973 798.625 168.437C798.625 168.668 798.625 168.871 798.625 169.045C798.654 169.19 798.668 169.32 798.668 169.436C798.668 169.668 798.553 169.871 798.321 170.044C798.118 170.189 797.64 170.378 796.887 170.609L786.674 173.564C786.356 173.651 785.936 173.782 785.414 173.956C784.893 174.158 784.386 174.26 783.893 174.26C783.487 174.26 783.125 174.158 782.807 173.956C782.517 173.753 782.372 173.405 782.372 172.913V172.652C782.575 170.537 782.734 168.828 782.85 167.524C782.995 166.191 783.111 165.119 783.198 164.308C783.314 163.497 783.401 162.889 783.458 162.483C783.516 162.048 783.56 161.657 783.589 161.31C783.647 160.933 783.705 160.527 783.763 160.093C783.821 159.658 783.879 159.05 783.937 158.268C784.023 157.456 784.125 156.399 784.241 155.095C784.386 153.763 784.559 152.024 784.762 149.88C784.878 148.722 784.994 147.577 785.11 146.447C785.255 145.288 785.327 144.231 785.327 143.275C785.327 142.058 785.269 140.957 785.153 139.972C785.037 138.958 784.82 138.104 784.501 137.408C784.212 136.684 783.806 136.119 783.285 135.713C782.763 135.308 782.097 135.105 781.286 135.105C780.706 135.105 779.91 135.25 778.896 135.54C777.91 135.829 776.911 136.307 775.897 136.974C774.912 137.64 774.028 138.524 773.246 139.625C772.493 140.696 772.058 142.029 771.942 143.623C771.711 145.766 771.522 147.534 771.377 148.924C771.233 150.286 771.117 151.416 771.03 152.314C770.943 153.183 770.87 153.893 770.812 154.443C770.784 154.965 770.755 155.457 770.726 155.921C770.697 156.037 770.653 156.37 770.595 156.92C770.537 157.442 770.465 158.079 770.378 158.833C770.32 159.557 770.248 160.354 770.161 161.223C770.103 162.063 770.045 162.86 769.987 163.613C769.929 164.337 769.871 164.974 769.813 165.525C769.784 166.046 769.77 166.365 769.77 166.481V167.263C769.77 167.553 769.755 167.799 769.726 168.002C769.697 168.205 769.61 168.393 769.465 168.567C769.32 168.741 769.103 168.9 768.813 169.045C768.553 169.19 768.176 169.349 767.684 169.523L756.298 173.564C755.979 173.68 755.559 173.825 755.038 173.999C754.516 174.173 754.009 174.26 753.517 174.26C753.111 174.26 752.749 174.158 752.43 173.956C752.14 173.753 751.996 173.405 751.996 172.913L755.907 128.586C755.994 127.63 756.095 126.979 756.211 126.631C756.356 126.254 756.689 126.008 757.21 125.892C759.847 125.371 762.541 124.849 765.293 124.328C768.046 123.777 770.74 123.082 773.376 122.242C773.608 122.242 773.739 122.285 773.768 122.372C773.826 122.43 773.854 122.531 773.854 122.676L773.29 129.021C774.361 128.471 775.564 127.877 776.896 127.239C778.229 126.573 779.62 125.965 781.068 125.414C782.546 124.864 784.038 124.415 785.544 124.067C787.08 123.69 788.572 123.502 790.021 123.502C792.02 123.502 793.859 123.965 795.54 124.893C797.249 125.791 798.654 127.297 799.755 129.412C801.059 128.572 802.435 127.79 803.883 127.065C805.361 126.341 806.853 125.718 808.359 125.197C809.895 124.675 811.43 124.27 812.966 123.98C814.501 123.69 815.993 123.545 817.442 123.545C819.267 123.545 820.991 123.806 822.613 124.328C824.236 124.849 825.641 125.704 826.829 126.892C828.045 128.079 829.001 129.629 829.697 131.542C830.392 133.425 830.74 135.728 830.74 138.451C830.74 139.146 830.725 139.871 830.696 140.624C830.667 141.348 830.609 142.102 830.522 142.884L828.523 161.483C828.379 162.7 828.292 163.83 828.263 164.873C828.234 165.887 828.219 167.075 828.219 168.437C828.219 168.668 828.219 168.871 828.219 169.045C828.248 169.19 828.263 169.32 828.263 169.436C828.263 169.697 828.147 169.9 827.915 170.044C827.712 170.189 827.234 170.378 826.481 170.609L815.791 173.564ZM863.202 123.502C865.954 123.502 868.446 124.023 870.677 125.066C872.937 126.08 874.863 127.413 876.457 129.064C878.079 130.687 879.325 132.512 880.194 134.54C881.063 136.568 881.498 138.596 881.498 140.624C881.498 142.42 880.947 144.231 879.846 146.056C878.745 147.852 877.195 149.475 875.196 150.923C873.226 152.372 870.851 153.545 868.069 154.443C865.288 155.341 862.232 155.791 858.9 155.791C857.162 155.791 855.336 155.617 853.424 155.269C853.54 156.515 853.902 157.587 854.511 158.485C855.119 159.383 855.887 160.122 856.814 160.701C857.741 161.281 858.784 161.715 859.943 162.005C861.131 162.266 862.347 162.396 863.593 162.396C864.984 162.396 866.317 162.28 867.591 162.048C868.895 161.788 870.141 161.454 871.329 161.049C872.516 160.643 873.661 160.194 874.762 159.702C875.863 159.209 876.906 158.717 877.891 158.224C878.151 158.166 878.369 158.123 878.542 158.094C878.745 158.036 878.934 158.007 879.107 158.007C879.107 158.007 879.093 158.239 879.064 158.702C879.064 159.166 879.064 159.818 879.064 160.658C879.064 161.498 879.049 162.512 879.021 163.7C879.021 164.888 879.006 166.206 878.977 167.654C879.064 167.799 879.122 167.944 879.151 168.089C879.18 168.234 879.194 168.35 879.194 168.437C879.194 168.784 878.876 169.161 878.238 169.566C877.601 169.972 876.761 170.392 875.718 170.827C874.704 171.261 873.53 171.681 872.198 172.087C870.894 172.493 869.561 172.855 868.2 173.173C866.838 173.521 865.52 173.782 864.245 173.956C862.97 174.158 861.855 174.26 860.899 174.26C857.77 174.26 854.728 173.709 851.773 172.608C848.847 171.536 846.239 169.986 843.951 167.958C841.691 165.931 839.88 163.468 838.519 160.571C837.157 157.674 836.476 154.414 836.476 150.793C836.476 146.998 837.128 143.449 838.432 140.146C839.735 136.814 841.561 133.917 843.907 131.455C846.283 128.992 849.108 127.051 852.381 125.631C855.655 124.212 859.262 123.502 863.202 123.502ZM862.681 135.062C861.493 135.062 860.392 135.322 859.378 135.844C858.393 136.336 857.48 137.061 856.64 138.017C855.829 138.944 855.119 140.074 854.511 141.406C853.902 142.71 853.41 144.159 853.033 145.752C856.017 145.23 858.494 144.68 860.464 144.101C862.434 143.521 864.013 142.942 865.201 142.362C866.389 141.754 867.229 141.16 867.722 140.581C868.214 139.972 868.46 139.393 868.46 138.842C868.46 138.321 868.258 137.828 867.852 137.365C867.475 136.901 866.997 136.496 866.418 136.148C865.839 135.8 865.201 135.54 864.506 135.366C863.84 135.163 863.231 135.062 862.681 135.062ZM907.702 155.834C907.702 155.805 907.688 155.776 907.659 155.747C907.659 155.718 907.659 155.689 907.659 155.66C907.659 155.168 907.919 154.921 908.441 154.921C908.702 154.921 908.991 155.052 909.31 155.312C910.875 156.79 912.613 157.963 914.525 158.833C916.437 159.702 918.523 160.136 920.783 160.136C921.391 160.136 922.086 160.078 922.869 159.962C923.651 159.818 924.39 159.6 925.085 159.311C925.78 158.992 926.36 158.586 926.823 158.094C927.316 157.601 927.562 156.978 927.562 156.225C927.562 155.385 927.359 154.632 926.954 153.965C926.548 153.299 926.012 152.734 925.346 152.271C925.085 152.097 924.694 151.807 924.172 151.401C923.651 150.996 923.057 150.532 922.391 150.011C921.724 149.489 921.029 148.939 920.305 148.359C919.58 147.751 918.885 147.186 918.219 146.665C917.581 146.114 917.002 145.622 916.48 145.187C915.959 144.752 915.568 144.419 915.307 144.188C913.598 142.913 912.236 141.624 911.222 140.32C910.237 139.016 909.484 137.654 908.962 136.235C908.441 134.815 908.108 133.352 907.963 131.846C907.818 130.31 907.746 128.688 907.746 126.979C907.746 124.429 908.354 122.01 909.571 119.721C910.788 117.432 912.497 115.448 914.699 113.768C916.93 112.058 919.595 110.711 922.695 109.726C925.795 108.712 929.242 108.205 933.038 108.205C933.501 108.205 934.196 108.263 935.124 108.379C936.051 108.466 937.065 108.625 938.166 108.857C939.295 109.089 940.44 109.407 941.599 109.813C942.757 110.219 943.815 110.74 944.771 111.377C945.09 111.609 945.336 111.841 945.51 112.073C945.713 112.305 945.843 112.667 945.901 113.159C946.046 115.506 946.162 117.824 946.249 120.112C946.335 122.372 946.451 124.777 946.596 127.326C946.596 127.819 946.495 128.152 946.292 128.326C946.089 128.471 945.828 128.543 945.51 128.543C945.191 128.543 944.945 128.456 944.771 128.282C943.931 127.442 943.062 126.616 942.164 125.805C941.265 124.994 940.324 124.284 939.339 123.676C938.354 123.038 937.296 122.531 936.167 122.155C935.066 121.778 933.863 121.59 932.56 121.59C931.777 121.59 930.995 121.662 930.213 121.807C929.431 121.923 928.721 122.155 928.083 122.502C927.446 122.85 926.925 123.328 926.519 123.937C926.142 124.545 925.954 125.313 925.954 126.24C925.954 127.225 926.07 128.079 926.302 128.804C926.562 129.528 927.185 130.209 928.17 130.846L938.6 137.93C940.512 139.291 942.062 140.653 943.25 142.015C944.438 143.347 945.365 144.68 946.031 146.013C946.698 147.345 947.147 148.664 947.378 149.967C947.639 151.242 947.77 152.502 947.77 153.748C947.77 155.776 947.436 157.688 946.77 159.484C946.104 161.281 945.191 162.946 944.032 164.482C942.873 165.988 941.512 167.35 939.947 168.567C938.412 169.755 936.76 170.783 934.993 171.652C933.226 172.493 931.386 173.13 929.474 173.564C927.591 174.028 925.737 174.26 923.912 174.26C922.492 174.26 921.087 174.231 919.696 174.173C918.335 174.144 917.002 174.028 915.698 173.825C914.395 173.651 913.134 173.362 911.917 172.956C910.701 172.579 909.542 172.043 908.441 171.348L907.702 155.834ZM974.669 138.495C974.264 141.537 973.873 144.579 973.496 147.621C973.148 150.634 972.931 153.458 972.844 156.095C972.844 157.225 972.931 158.166 973.105 158.919C973.279 159.673 973.525 160.267 973.844 160.701C974.191 161.136 974.597 161.454 975.061 161.657C975.524 161.831 976.046 161.918 976.625 161.918C977.552 161.918 978.566 161.788 979.667 161.527C980.768 161.237 981.869 160.875 982.97 160.44C983.317 160.296 983.607 160.194 983.839 160.136C984.1 160.049 984.317 160.006 984.491 160.006C984.78 160.006 984.969 160.136 985.056 160.397C985.172 160.658 985.273 161.121 985.36 161.788C985.476 162.425 985.635 163.294 985.838 164.395C986.041 165.496 986.374 166.887 986.837 168.567C986.866 168.712 986.881 168.842 986.881 168.958C986.91 169.045 986.924 169.132 986.924 169.219C986.924 169.624 986.765 169.914 986.446 170.088C986.157 170.262 985.664 170.465 984.969 170.696C983.781 171.102 982.521 171.522 981.188 171.957C979.884 172.362 978.581 172.739 977.277 173.086C976.002 173.434 974.771 173.709 973.583 173.912C972.395 174.144 971.352 174.26 970.454 174.26C965.616 174.26 962.081 173.057 959.851 170.653C957.649 168.248 956.548 164.583 956.548 159.658C956.548 158.818 956.577 157.963 956.635 157.094C956.693 156.196 956.765 155.269 956.852 154.313C957.142 151.416 957.388 148.678 957.591 146.1C957.823 143.492 958.054 141.001 958.286 138.625H953.723C952.159 138.625 951.029 138.567 950.333 138.451C949.638 138.306 949.291 138.031 949.291 137.625C949.291 137.51 949.435 137.205 949.725 136.713C950.015 136.191 950.377 135.583 950.812 134.888C951.275 134.163 951.768 133.396 952.289 132.584C952.811 131.773 953.303 131.02 953.767 130.325C954.259 129.6 954.679 128.978 955.027 128.456C955.375 127.935 955.592 127.616 955.679 127.5H958.764C959.025 125.298 959.228 123.458 959.373 121.981C959.546 120.474 959.677 119.229 959.764 118.244C959.88 117.259 959.981 116.505 960.068 115.984C960.155 115.433 960.242 115.028 960.329 114.767C960.444 114.506 960.575 114.347 960.72 114.289C960.894 114.202 961.111 114.13 961.372 114.072C962.675 113.811 963.936 113.579 965.152 113.376C966.369 113.145 967.586 112.913 968.803 112.681C970.02 112.449 971.251 112.189 972.497 111.899C973.771 111.58 975.09 111.218 976.451 110.812C976.538 110.812 976.596 110.812 976.625 110.812C976.654 110.784 976.712 110.769 976.799 110.769C977.146 110.769 977.32 110.885 977.32 111.117V111.204C977.175 112.797 976.944 115.013 976.625 117.853C976.335 120.692 976.002 123.908 975.625 127.5H987.272C987.504 127.5 987.721 127.587 987.924 127.761C988.156 127.906 988.271 128.166 988.271 128.543C988.271 128.688 988.098 129.209 987.75 130.107C987.402 131.006 986.91 132.179 986.272 133.627L984.708 137.147C984.505 137.582 984.288 137.901 984.056 138.104C983.853 138.306 983.419 138.437 982.752 138.495H974.669ZM1035.77 163.265C1035.74 163.381 1035.73 163.497 1035.73 163.613C1035.73 163.7 1035.73 163.787 1035.73 163.874C1035.73 164.598 1035.84 165.206 1036.07 165.699C1036.31 166.162 1036.55 166.553 1036.81 166.872C1037.1 167.162 1037.36 167.408 1037.6 167.611C1037.83 167.785 1037.94 167.944 1037.94 168.089C1037.94 168.494 1037.51 168.871 1036.64 169.219L1024.95 174.216C1024.92 174.245 1024.82 174.26 1024.65 174.26C1024.41 174.26 1024.18 174.057 1023.95 173.651C1023.72 173.246 1023.49 172.724 1023.25 172.087C1023.05 171.479 1022.85 170.827 1022.65 170.131C1022.47 169.407 1022.31 168.741 1022.17 168.132C1020.34 170.247 1018.37 171.797 1016.26 172.782C1014.14 173.767 1012.04 174.26 1009.96 174.26C1007.52 174.26 1005.15 173.724 1002.83 172.652C1000.51 171.58 998.455 170.059 996.659 168.089C994.862 166.09 993.414 163.685 992.313 160.875C991.241 158.065 990.705 154.907 990.705 151.401C990.705 147.258 991.299 143.478 992.487 140.059C993.704 136.64 995.34 133.7 997.397 131.237C999.454 128.775 1001.84 126.877 1004.57 125.544C1007.32 124.183 1010.23 123.502 1013.3 123.502C1015.48 123.502 1017.53 123.951 1019.47 124.849C1021.41 125.718 1023.25 126.848 1024.99 128.239C1025.17 127.37 1025.27 126.674 1025.3 126.153C1025.33 125.631 1025.38 125.226 1025.47 124.936C1025.59 124.646 1025.79 124.458 1026.08 124.371C1026.37 124.255 1026.85 124.168 1027.51 124.11C1029.6 123.821 1031.67 123.56 1033.73 123.328C1035.81 123.067 1037.99 122.879 1040.25 122.763L1035.77 163.265ZM1022.78 146.882C1023.07 145.23 1023.25 143.681 1023.34 142.232C1023.46 140.754 1023.54 139.407 1023.6 138.19C1023.14 137.843 1022.63 137.481 1022.08 137.104C1021.56 136.727 1020.98 136.38 1020.34 136.061C1019.73 135.713 1019.08 135.438 1018.39 135.235C1017.72 135.033 1017.01 134.931 1016.26 134.931C1014.69 134.931 1013.38 135.438 1012.3 136.452C1011.26 137.466 1010.41 138.712 1009.74 140.189C1009.1 141.667 1008.64 143.231 1008.35 144.883C1008.09 146.534 1007.96 147.997 1007.96 149.272C1007.96 153.849 1008.55 157.21 1009.74 159.354C1010.96 161.469 1012.64 162.526 1014.78 162.526C1015.65 162.526 1016.62 162.28 1017.69 161.788C1018.76 161.295 1019.85 160.614 1020.95 159.745L1022.78 146.882ZM1069.06 138.495C1068.65 141.537 1068.26 144.579 1067.88 147.621C1067.54 150.634 1067.32 153.458 1067.23 156.095C1067.23 157.225 1067.32 158.166 1067.49 158.919C1067.67 159.673 1067.91 160.267 1068.23 160.701C1068.58 161.136 1068.99 161.454 1069.45 161.657C1069.91 161.831 1070.43 161.918 1071.01 161.918C1071.94 161.918 1072.95 161.788 1074.06 161.527C1075.16 161.237 1076.26 160.875 1077.36 160.44C1077.71 160.296 1078 160.194 1078.23 160.136C1078.49 160.049 1078.71 160.006 1078.88 160.006C1079.17 160.006 1079.36 160.136 1079.44 160.397C1079.56 160.658 1079.66 161.121 1079.75 161.788C1079.86 162.425 1080.02 163.294 1080.23 164.395C1080.43 165.496 1080.76 166.887 1081.23 168.567C1081.26 168.712 1081.27 168.842 1081.27 168.958C1081.3 169.045 1081.31 169.132 1081.31 169.219C1081.31 169.624 1081.15 169.914 1080.83 170.088C1080.55 170.262 1080.05 170.465 1079.36 170.696C1078.17 171.102 1076.91 171.522 1075.58 171.957C1074.27 172.362 1072.97 172.739 1071.67 173.086C1070.39 173.434 1069.16 173.709 1067.97 173.912C1066.78 174.144 1065.74 174.26 1064.84 174.26C1060 174.26 1056.47 173.057 1054.24 170.653C1052.04 168.248 1050.94 164.583 1050.94 159.658C1050.94 158.818 1050.97 157.963 1051.02 157.094C1051.08 156.196 1051.15 155.269 1051.24 154.313C1051.53 151.416 1051.78 148.678 1051.98 146.1C1052.21 143.492 1052.44 141.001 1052.67 138.625H1048.11C1046.55 138.625 1045.42 138.567 1044.72 138.451C1044.03 138.306 1043.68 138.031 1043.68 137.625C1043.68 137.51 1043.82 137.205 1044.11 136.713C1044.4 136.191 1044.77 135.583 1045.2 134.888C1045.66 134.163 1046.16 133.396 1046.68 132.584C1047.2 131.773 1047.69 131.02 1048.16 130.325C1048.65 129.6 1049.07 128.978 1049.42 128.456C1049.76 127.935 1049.98 127.616 1050.07 127.5H1053.15C1053.41 125.298 1053.62 123.458 1053.76 121.981C1053.94 120.474 1054.07 119.229 1054.15 118.244C1054.27 117.259 1054.37 116.505 1054.46 115.984C1054.54 115.433 1054.63 115.028 1054.72 114.767C1054.83 114.506 1054.96 114.347 1055.11 114.289C1055.28 114.202 1055.5 114.13 1055.76 114.072C1057.06 113.811 1058.32 113.579 1059.54 113.376C1060.76 113.145 1061.97 112.913 1063.19 112.681C1064.41 112.449 1065.64 112.189 1066.89 111.899C1068.16 111.58 1069.48 111.218 1070.84 110.812C1070.93 110.812 1070.98 110.812 1071.01 110.812C1071.04 110.784 1071.1 110.769 1071.19 110.769C1071.54 110.769 1071.71 110.885 1071.71 111.117V111.204C1071.56 112.797 1071.33 115.013 1071.01 117.853C1070.72 120.692 1070.39 123.908 1070.01 127.5H1081.66C1081.89 127.5 1082.11 127.587 1082.31 127.761C1082.54 127.906 1082.66 128.166 1082.66 128.543C1082.66 128.688 1082.49 129.209 1082.14 130.107C1081.79 131.006 1081.3 132.179 1080.66 133.627L1079.1 137.147C1078.89 137.582 1078.68 137.901 1078.44 138.104C1078.24 138.306 1077.81 138.437 1077.14 138.495H1069.06ZM1111.43 123.502C1114.18 123.502 1116.67 124.023 1118.9 125.066C1121.16 126.08 1123.09 127.413 1124.68 129.064C1126.31 130.687 1127.55 132.512 1128.42 134.54C1129.29 136.568 1129.72 138.596 1129.72 140.624C1129.72 142.42 1129.17 144.231 1128.07 146.056C1126.97 147.852 1125.42 149.475 1123.42 150.923C1121.45 152.372 1119.08 153.545 1116.3 154.443C1113.51 155.341 1110.46 155.791 1107.13 155.791C1105.39 155.791 1103.56 155.617 1101.65 155.269C1101.77 156.515 1102.13 157.587 1102.74 158.485C1103.35 159.383 1104.11 160.122 1105.04 160.701C1105.97 161.281 1107.01 161.715 1108.17 162.005C1109.36 162.266 1110.57 162.396 1111.82 162.396C1113.21 162.396 1114.54 162.28 1115.82 162.048C1117.12 161.788 1118.37 161.454 1119.56 161.049C1120.74 160.643 1121.89 160.194 1122.99 159.702C1124.09 159.209 1125.13 158.717 1126.12 158.224C1126.38 158.166 1126.6 158.123 1126.77 158.094C1126.97 158.036 1127.16 158.007 1127.33 158.007C1127.33 158.007 1127.32 158.239 1127.29 158.702C1127.29 159.166 1127.29 159.818 1127.29 160.658C1127.29 161.498 1127.28 162.512 1127.25 163.7C1127.25 164.888 1127.23 166.206 1127.2 167.654C1127.29 167.799 1127.35 167.944 1127.38 168.089C1127.41 168.234 1127.42 168.35 1127.42 168.437C1127.42 168.784 1127.1 169.161 1126.46 169.566C1125.83 169.972 1124.99 170.392 1123.94 170.827C1122.93 171.261 1121.76 171.681 1120.42 172.087C1119.12 172.493 1117.79 172.855 1116.43 173.173C1115.06 173.521 1113.75 173.782 1112.47 173.956C1111.2 174.158 1110.08 174.26 1109.13 174.26C1106 174.26 1102.95 173.709 1100 172.608C1097.07 171.536 1094.47 169.986 1092.18 167.958C1089.92 165.931 1088.11 163.468 1086.75 160.571C1085.38 157.674 1084.7 154.414 1084.7 150.793C1084.7 146.998 1085.35 143.449 1086.66 140.146C1087.96 136.814 1089.79 133.917 1092.13 131.455C1094.51 128.992 1097.33 127.051 1100.61 125.631C1103.88 124.212 1107.49 123.502 1111.43 123.502ZM1110.91 135.062C1109.72 135.062 1108.62 135.322 1107.6 135.844C1106.62 136.336 1105.71 137.061 1104.87 138.017C1104.06 138.944 1103.35 140.074 1102.74 141.406C1102.13 142.71 1101.64 144.159 1101.26 145.752C1104.24 145.23 1106.72 144.68 1108.69 144.101C1110.66 143.521 1112.24 142.942 1113.43 142.362C1114.62 141.754 1115.46 141.16 1115.95 140.581C1116.44 139.972 1116.69 139.393 1116.69 138.842C1116.69 138.321 1116.48 137.828 1116.08 137.365C1115.7 136.901 1115.22 136.496 1114.64 136.148C1114.07 135.8 1113.43 135.54 1112.73 135.366C1112.07 135.163 1111.46 135.062 1110.91 135.062Z" fill="#1A75B9"/>
<path d="M442.324 190.984C442.402 190.932 442.533 190.867 442.715 190.789C442.91 190.698 443.132 190.6 443.379 190.496C443.639 190.392 443.913 190.281 444.199 190.164C444.499 190.034 444.798 189.91 445.098 189.793L447.363 188.895C447.533 188.816 447.689 188.777 447.832 188.777C447.936 188.777 448.047 188.81 448.164 188.875C448.294 188.927 448.438 189.031 448.594 189.188L453.105 197.938L453.223 197.645L455.156 194.07C455.404 193.628 455.645 193.191 455.879 192.762C456.126 192.332 456.341 191.948 456.523 191.609C456.719 191.271 456.882 190.997 457.012 190.789C457.142 190.581 457.22 190.477 457.246 190.477L463.945 188.797C464.102 188.758 464.232 188.738 464.336 188.738C464.635 188.738 464.785 188.875 464.785 189.148C464.772 189.214 464.759 189.305 464.746 189.422C464.733 189.526 464.694 189.643 464.629 189.773L458.887 200.418C458.6 200.952 458.307 201.486 458.008 202.02C457.721 202.553 457.441 203.061 457.168 203.543C456.895 204.012 456.647 204.441 456.426 204.832C456.217 205.223 456.048 205.542 455.918 205.789L455.781 206.434L454.688 213.758C454.648 213.979 454.616 214.161 454.59 214.305C454.564 214.448 454.525 214.565 454.473 214.656C454.434 214.747 454.375 214.826 454.297 214.891C454.232 214.956 454.134 215.021 454.004 215.086L448.457 217.996C448.249 218.1 448.027 218.185 447.793 218.25C447.572 218.315 447.357 218.348 447.148 218.348C446.927 218.348 446.738 218.296 446.582 218.191C446.426 218.1 446.348 217.944 446.348 217.723V217.645C446.4 216.902 446.491 216.043 446.621 215.066C446.764 214.077 446.914 213.113 447.07 212.176L448.164 204.93C447.956 204.487 447.682 203.901 447.344 203.172C447.005 202.443 446.641 201.655 446.25 200.809C445.859 199.962 445.449 199.09 445.02 198.191C444.603 197.293 444.206 196.447 443.828 195.652C443.464 194.845 443.132 194.135 442.832 193.523C442.546 192.911 442.331 192.462 442.188 192.176C442.122 191.98 442.09 191.779 442.09 191.57C442.09 191.453 442.103 191.342 442.129 191.238C442.168 191.121 442.233 191.036 442.324 190.984ZM472.07 218.016C470.234 218.016 468.62 217.716 467.227 217.117C465.846 216.518 464.688 215.724 463.75 214.734C462.812 213.732 462.109 212.586 461.641 211.297C461.172 209.995 460.938 208.647 460.938 207.254C460.938 205.861 461.165 204.539 461.621 203.289C462.077 202.026 462.715 200.9 463.535 199.91C464.355 198.908 465.339 198.074 466.484 197.41C467.63 196.733 468.893 196.277 470.273 196.043C470.482 196.03 470.586 195.984 470.586 195.906C470.586 195.763 470.566 195.633 470.527 195.516C470.501 195.385 470.488 195.275 470.488 195.184C470.488 195.04 470.514 194.943 470.566 194.891C470.618 194.839 470.677 194.812 470.742 194.812C473.229 194.812 475.345 195.099 477.09 195.672C478.835 196.232 480.254 197 481.348 197.977C482.441 198.953 483.236 200.105 483.73 201.434C484.225 202.762 484.473 204.188 484.473 205.711C484.473 207.651 484.147 209.383 483.496 210.906C482.845 212.43 481.953 213.719 480.82 214.773C479.701 215.828 478.385 216.629 476.875 217.176C475.378 217.736 473.776 218.016 472.07 218.016ZM468.457 207.039C468.457 207.742 468.529 208.439 468.672 209.129C468.828 209.819 469.076 210.444 469.414 211.004C469.766 211.564 470.221 212.02 470.781 212.371C471.341 212.71 472.038 212.879 472.871 212.879C473.47 212.853 473.991 212.723 474.434 212.488C474.889 212.241 475.28 211.928 475.605 211.551C475.931 211.16 476.198 210.724 476.406 210.242C476.628 209.76 476.797 209.266 476.914 208.758C477.044 208.237 477.135 207.729 477.188 207.234C477.24 206.74 477.266 206.29 477.266 205.887C477.266 205.21 477.161 204.546 476.953 203.895C476.758 203.243 476.465 202.671 476.074 202.176C475.684 201.681 475.195 201.284 474.609 200.984C474.036 200.672 473.372 200.516 472.617 200.516C471.836 200.516 471.178 200.75 470.645 201.219C470.111 201.674 469.681 202.241 469.355 202.918C469.043 203.595 468.815 204.311 468.672 205.066C468.529 205.809 468.457 206.466 468.457 207.039ZM507.637 214.578C507.598 215.008 507.546 215.307 507.48 215.477C507.415 215.633 507.272 215.737 507.051 215.789C505.944 216.102 504.785 216.421 503.574 216.746C502.376 217.059 501.211 217.475 500.078 217.996C500.039 218.009 499.98 218.016 499.902 218.016C499.798 218.016 499.733 217.99 499.707 217.938C499.694 217.885 499.688 217.827 499.688 217.762C499.688 217.736 499.688 217.69 499.688 217.625C499.701 217.56 499.72 217.436 499.746 217.254C499.772 217.085 499.805 216.844 499.844 216.531C499.896 216.219 499.961 215.802 500.039 215.281C498.581 216.232 497.285 216.922 496.152 217.352C495.033 217.794 494.036 218.016 493.164 218.016C490.99 218.016 489.401 217.495 488.398 216.453C487.409 215.398 486.914 213.829 486.914 211.746C486.914 211.368 486.921 210.984 486.934 210.594C486.947 210.19 486.986 209.78 487.051 209.363C487.194 207.827 487.318 206.512 487.422 205.418C487.526 204.311 487.611 203.374 487.676 202.605C487.741 201.837 487.793 201.212 487.832 200.73C487.884 200.236 487.923 199.826 487.949 199.5C487.988 199.174 488.014 198.908 488.027 198.699C488.053 198.478 488.079 198.263 488.105 198.055C488.158 197.638 488.203 197.345 488.242 197.176C488.294 197.007 488.444 196.896 488.691 196.844C489.303 196.727 489.883 196.622 490.43 196.531C490.99 196.427 491.536 196.323 492.07 196.219C492.617 196.102 493.171 195.978 493.73 195.848C494.29 195.717 494.883 195.561 495.508 195.379C495.534 195.379 495.56 195.379 495.586 195.379C495.612 195.366 495.638 195.359 495.664 195.359C495.82 195.359 495.898 195.411 495.898 195.516V195.555C495.846 195.997 495.801 196.414 495.762 196.805C495.723 197.195 495.684 197.599 495.645 198.016C495.605 198.419 495.56 198.855 495.508 199.324C495.469 199.793 495.417 200.34 495.352 200.965C495.286 201.577 495.208 202.286 495.117 203.094C495.026 203.901 494.915 204.839 494.785 205.906C494.707 206.688 494.629 207.469 494.551 208.25C494.473 209.018 494.434 209.734 494.434 210.398C494.434 210.763 494.46 211.102 494.512 211.414C494.564 211.714 494.655 211.974 494.785 212.195C494.928 212.404 495.111 212.566 495.332 212.684C495.553 212.801 495.84 212.859 496.191 212.859C496.465 212.859 496.836 212.801 497.305 212.684C497.773 212.553 498.242 212.339 498.711 212.039C499.18 211.727 499.59 211.323 499.941 210.828C500.306 210.32 500.514 209.682 500.566 208.914C500.658 207.625 500.736 206.551 500.801 205.691C500.879 204.819 500.944 204.09 500.996 203.504C501.048 202.905 501.094 202.404 501.133 202C501.172 201.596 501.204 201.212 501.23 200.848C501.27 200.47 501.302 200.073 501.328 199.656C501.354 199.227 501.38 198.693 501.406 198.055C501.445 197.625 501.491 197.332 501.543 197.176C501.608 197.007 501.758 196.896 501.992 196.844C503.177 196.609 504.388 196.375 505.625 196.141C506.862 195.893 508.073 195.581 509.258 195.203C509.362 195.203 509.421 195.223 509.434 195.262C509.46 195.288 509.473 195.333 509.473 195.398L507.637 214.578ZM527.969 201.102C527.695 201.076 527.389 201.049 527.051 201.023C526.712 200.984 526.354 200.965 525.977 200.965C525.404 200.965 524.818 201.017 524.219 201.121C523.633 201.212 523.086 201.401 522.578 201.688C522.07 201.974 521.634 202.371 521.27 202.879C520.905 203.374 520.671 204.018 520.566 204.812C520.475 205.776 520.397 206.57 520.332 207.195C520.28 207.807 520.241 208.315 520.215 208.719C520.189 209.109 520.163 209.428 520.137 209.676C520.124 209.91 520.111 210.132 520.098 210.34C520.098 210.392 520.085 210.535 520.059 210.77C520.046 211.004 520.02 211.277 519.98 211.59C519.941 211.902 519.902 212.241 519.863 212.605C519.837 212.97 519.805 213.309 519.766 213.621C519.727 213.934 519.694 214.207 519.668 214.441C519.655 214.676 519.648 214.819 519.648 214.871C519.648 214.975 519.648 215.066 519.648 215.145C519.661 215.21 519.668 215.275 519.668 215.34C519.668 215.444 519.616 215.535 519.512 215.613C519.421 215.678 519.206 215.757 518.867 215.848L513.691 217.703C513.548 217.755 513.359 217.82 513.125 217.898C512.891 217.977 512.663 218.016 512.441 218.016C512.259 218.016 512.096 217.97 511.953 217.879C511.823 217.788 511.758 217.632 511.758 217.41L513.438 198.055C513.477 197.625 513.522 197.332 513.574 197.176C513.639 197.007 513.789 196.896 514.023 196.844C515.208 196.609 516.432 196.375 517.695 196.141C518.958 195.893 520.182 195.581 521.367 195.203C521.471 195.203 521.53 195.223 521.543 195.262C521.569 195.288 521.582 195.333 521.582 195.398C521.582 195.424 521.576 195.464 521.562 195.516C521.562 195.568 521.543 195.685 521.504 195.867C521.478 196.049 521.432 196.329 521.367 196.707C521.315 197.072 521.237 197.586 521.133 198.25C521.732 197.781 522.389 197.352 523.105 196.961C523.835 196.57 524.564 196.238 525.293 195.965C526.022 195.678 526.725 195.457 527.402 195.301C528.079 195.132 528.672 195.047 529.18 195.047L527.969 201.102ZM553.066 215.281C553.001 215.451 552.936 215.613 552.871 215.77C552.819 215.926 552.747 216.069 552.656 216.199C552.565 216.329 552.448 216.447 552.305 216.551C552.174 216.655 552.005 216.74 551.797 216.805C550.977 217.065 550.163 217.286 549.355 217.469C548.548 217.664 547.734 217.898 546.914 218.172C546.758 218.224 546.621 218.263 546.504 218.289C546.387 218.315 546.276 218.328 546.172 218.328C545.938 218.328 545.768 218.27 545.664 218.152C545.56 218.035 545.482 217.885 545.43 217.703L538.75 191.141C538.646 190.802 538.594 190.522 538.594 190.301C538.594 190.014 538.685 189.78 538.867 189.598C539.049 189.402 539.342 189.246 539.746 189.129C540.163 188.999 540.69 188.882 541.328 188.777C541.979 188.673 542.773 188.556 543.711 188.426C544.167 188.361 544.551 188.315 544.863 188.289C545.176 188.25 545.443 188.23 545.664 188.23C546.042 188.23 546.289 188.296 546.406 188.426C546.536 188.543 546.654 188.732 546.758 188.992L550.488 205.125L555.742 190.301C555.82 190.092 555.885 189.923 555.938 189.793C556.003 189.663 556.113 189.552 556.27 189.461C556.439 189.357 556.686 189.259 557.012 189.168C557.35 189.064 557.832 188.947 558.457 188.816C559.434 188.608 560.241 188.458 560.879 188.367C561.517 188.276 562.031 188.23 562.422 188.23C562.917 188.23 563.236 188.289 563.379 188.406C563.535 188.523 563.613 188.693 563.613 188.914C563.626 189.005 563.607 189.103 563.555 189.207C563.516 189.298 563.47 189.415 563.418 189.559L553.066 215.281ZM563.945 208.719C564.115 206.935 564.284 205.171 564.453 203.426C564.622 201.681 564.772 199.891 564.902 198.055C564.928 197.625 564.967 197.332 565.02 197.176C565.085 197.007 565.234 196.896 565.469 196.844C566.576 196.622 567.734 196.395 568.945 196.16C570.156 195.913 571.328 195.6 572.461 195.223C572.5 195.21 572.559 195.203 572.637 195.203C572.78 195.203 572.852 195.255 572.852 195.359L571.094 214.383C571.055 214.812 571.009 215.112 570.957 215.281C570.905 215.438 570.762 215.542 570.527 215.594C569.421 215.932 568.301 216.31 567.168 216.727C566.035 217.143 564.837 217.566 563.574 217.996C563.535 218.009 563.477 218.016 563.398 218.016C563.255 218.016 563.184 217.951 563.184 217.82C563.184 217.807 563.197 217.632 563.223 217.293C563.249 216.954 563.281 216.518 563.32 215.984C563.372 215.451 563.424 214.852 563.477 214.188C563.529 213.523 563.581 212.859 563.633 212.195C563.698 211.531 563.757 210.893 563.809 210.281C563.861 209.669 563.906 209.148 563.945 208.719ZM565.41 193.133C565.449 192.573 565.475 192.143 565.488 191.844C565.514 191.544 565.534 191.323 565.547 191.18C565.56 191.023 565.566 190.926 565.566 190.887C565.566 190.848 565.566 190.822 565.566 190.809C565.579 190.783 565.586 190.743 565.586 190.691C565.599 190.626 565.612 190.503 565.625 190.32C565.638 190.125 565.658 189.845 565.684 189.48C565.71 189.116 565.749 188.615 565.801 187.977C565.827 187.547 565.866 187.254 565.918 187.098C565.983 186.928 566.133 186.818 566.367 186.766C567.474 186.544 568.633 186.316 569.844 186.082C571.055 185.835 572.227 185.522 573.359 185.145C573.398 185.132 573.457 185.125 573.535 185.125C573.574 185.203 573.626 185.255 573.691 185.281L573.75 185.32L573.32 190.672C573.281 191.102 573.229 191.401 573.164 191.57C573.112 191.74 572.975 191.844 572.754 191.883C571.647 192.091 570.527 192.319 569.395 192.566C568.262 192.814 567.064 193.061 565.801 193.309C565.762 193.322 565.703 193.328 565.625 193.328C565.482 193.328 565.41 193.263 565.41 193.133ZM575.488 211.609C575.488 211.596 575.482 211.59 575.469 211.59C575.469 211.577 575.469 211.564 575.469 211.551C575.469 211.382 575.56 211.297 575.742 211.297C575.859 211.297 575.964 211.342 576.055 211.434C576.576 211.928 577.168 212.332 577.832 212.645C578.509 212.957 579.238 213.113 580.02 213.113C580.228 213.113 580.469 213.094 580.742 213.055C581.016 213.003 581.276 212.924 581.523 212.82C581.771 212.716 581.973 212.579 582.129 212.41C582.298 212.228 582.383 212.007 582.383 211.746C582.383 211.46 582.311 211.199 582.168 210.965C582.025 210.717 581.836 210.516 581.602 210.359C581.471 210.268 581.243 210.112 580.918 209.891C580.592 209.656 580.241 209.409 579.863 209.148C579.499 208.888 579.147 208.641 578.809 208.406C578.483 208.172 578.255 208.003 578.125 207.898C577.539 207.456 577.07 207.007 576.719 206.551C576.38 206.095 576.12 205.626 575.938 205.145C575.755 204.65 575.638 204.135 575.586 203.602C575.534 203.068 575.508 202.501 575.508 201.902C575.508 200.991 575.749 200.132 576.23 199.324C576.712 198.517 577.344 197.807 578.125 197.195C578.919 196.583 579.818 196.102 580.82 195.75C581.823 195.385 582.845 195.203 583.887 195.203C584.746 195.203 585.592 195.333 586.426 195.594C587.259 195.854 588.034 196.297 588.75 196.922C588.815 197.742 588.861 198.549 588.887 199.344C588.913 200.138 588.952 200.971 589.004 201.844C589.004 202.013 588.965 202.13 588.887 202.195C588.809 202.247 588.717 202.273 588.613 202.273C588.522 202.273 588.444 202.241 588.379 202.176C588.079 201.889 587.773 201.609 587.461 201.336C587.148 201.049 586.816 200.802 586.465 200.594C586.126 200.372 585.762 200.197 585.371 200.066C584.98 199.923 584.564 199.852 584.121 199.852C583.848 199.852 583.574 199.878 583.301 199.93C583.027 199.969 582.78 200.053 582.559 200.184C582.337 200.301 582.155 200.464 582.012 200.672C581.882 200.88 581.816 201.147 581.816 201.473C581.816 201.85 581.862 202.176 581.953 202.449C582.044 202.723 582.259 202.99 582.598 203.25L586.23 205.711C586.895 206.167 587.428 206.616 587.832 207.059C588.249 207.488 588.574 207.918 588.809 208.348C589.043 208.777 589.199 209.207 589.277 209.637C589.368 210.053 589.414 210.47 589.414 210.887C589.414 212.059 589.141 213.094 588.594 213.992C588.06 214.878 587.363 215.62 586.504 216.219C585.645 216.805 584.668 217.247 583.574 217.547C582.493 217.859 581.406 218.016 580.312 218.016C579.479 218.016 578.672 217.924 577.891 217.742C577.122 217.573 576.406 217.306 575.742 216.941L575.488 211.609ZM592.734 208.719C592.904 206.935 593.073 205.171 593.242 203.426C593.411 201.681 593.561 199.891 593.691 198.055C593.717 197.625 593.757 197.332 593.809 197.176C593.874 197.007 594.023 196.896 594.258 196.844C595.365 196.622 596.523 196.395 597.734 196.16C598.945 195.913 600.117 195.6 601.25 195.223C601.289 195.21 601.348 195.203 601.426 195.203C601.569 195.203 601.641 195.255 601.641 195.359L599.883 214.383C599.844 214.812 599.798 215.112 599.746 215.281C599.694 215.438 599.551 215.542 599.316 215.594C598.21 215.932 597.09 216.31 595.957 216.727C594.824 217.143 593.626 217.566 592.363 217.996C592.324 218.009 592.266 218.016 592.188 218.016C592.044 218.016 591.973 217.951 591.973 217.82C591.973 217.807 591.986 217.632 592.012 217.293C592.038 216.954 592.07 216.518 592.109 215.984C592.161 215.451 592.214 214.852 592.266 214.188C592.318 213.523 592.37 212.859 592.422 212.195C592.487 211.531 592.546 210.893 592.598 210.281C592.65 209.669 592.695 209.148 592.734 208.719ZM594.199 193.133C594.238 192.573 594.264 192.143 594.277 191.844C594.303 191.544 594.323 191.323 594.336 191.18C594.349 191.023 594.355 190.926 594.355 190.887C594.355 190.848 594.355 190.822 594.355 190.809C594.368 190.783 594.375 190.743 594.375 190.691C594.388 190.626 594.401 190.503 594.414 190.32C594.427 190.125 594.447 189.845 594.473 189.48C594.499 189.116 594.538 188.615 594.59 187.977C594.616 187.547 594.655 187.254 594.707 187.098C594.772 186.928 594.922 186.818 595.156 186.766C596.263 186.544 597.422 186.316 598.633 186.082C599.844 185.835 601.016 185.522 602.148 185.145C602.188 185.132 602.246 185.125 602.324 185.125C602.363 185.203 602.415 185.255 602.48 185.281L602.539 185.32L602.109 190.672C602.07 191.102 602.018 191.401 601.953 191.57C601.901 191.74 601.764 191.844 601.543 191.883C600.436 192.091 599.316 192.319 598.184 192.566C597.051 192.814 595.853 193.061 594.59 193.309C594.551 193.322 594.492 193.328 594.414 193.328C594.271 193.328 594.199 193.263 594.199 193.133ZM614.922 218.016C613.086 218.016 611.471 217.716 610.078 217.117C608.698 216.518 607.539 215.724 606.602 214.734C605.664 213.732 604.961 212.586 604.492 211.297C604.023 209.995 603.789 208.647 603.789 207.254C603.789 205.861 604.017 204.539 604.473 203.289C604.928 202.026 605.566 200.9 606.387 199.91C607.207 198.908 608.19 198.074 609.336 197.41C610.482 196.733 611.745 196.277 613.125 196.043C613.333 196.03 613.438 195.984 613.438 195.906C613.438 195.763 613.418 195.633 613.379 195.516C613.353 195.385 613.34 195.275 613.34 195.184C613.34 195.04 613.366 194.943 613.418 194.891C613.47 194.839 613.529 194.812 613.594 194.812C616.081 194.812 618.197 195.099 619.941 195.672C621.686 196.232 623.105 197 624.199 197.977C625.293 198.953 626.087 200.105 626.582 201.434C627.077 202.762 627.324 204.188 627.324 205.711C627.324 207.651 626.999 209.383 626.348 210.906C625.697 212.43 624.805 213.719 623.672 214.773C622.552 215.828 621.237 216.629 619.727 217.176C618.229 217.736 616.628 218.016 614.922 218.016ZM611.309 207.039C611.309 207.742 611.38 208.439 611.523 209.129C611.68 209.819 611.927 210.444 612.266 211.004C612.617 211.564 613.073 212.02 613.633 212.371C614.193 212.71 614.889 212.879 615.723 212.879C616.322 212.853 616.842 212.723 617.285 212.488C617.741 212.241 618.132 211.928 618.457 211.551C618.783 211.16 619.049 210.724 619.258 210.242C619.479 209.76 619.648 209.266 619.766 208.758C619.896 208.237 619.987 207.729 620.039 207.234C620.091 206.74 620.117 206.29 620.117 205.887C620.117 205.21 620.013 204.546 619.805 203.895C619.609 203.243 619.316 202.671 618.926 202.176C618.535 201.681 618.047 201.284 617.461 200.984C616.888 200.672 616.224 200.516 615.469 200.516C614.688 200.516 614.03 200.75 613.496 201.219C612.962 201.674 612.533 202.241 612.207 202.918C611.895 203.595 611.667 204.311 611.523 205.066C611.38 205.809 611.309 206.466 611.309 207.039ZM646.055 217.703C645.911 217.742 645.723 217.801 645.488 217.879C645.254 217.97 645.026 218.016 644.805 218.016C644.622 218.016 644.46 217.97 644.316 217.879C644.186 217.788 644.121 217.632 644.121 217.41V217.293C644.199 216.59 644.264 215.997 644.316 215.516C644.368 215.021 644.414 214.578 644.453 214.188C644.505 213.784 644.544 213.387 644.57 212.996C644.609 212.592 644.655 212.13 644.707 211.609C644.759 211.076 644.818 210.451 644.883 209.734C644.961 209.005 645.052 208.1 645.156 207.02C645.221 206.355 645.28 205.678 645.332 204.988C645.384 204.298 645.41 203.66 645.41 203.074C645.41 202.684 645.378 202.326 645.312 202C645.26 201.661 645.156 201.375 645 201.141C644.857 200.893 644.655 200.704 644.395 200.574C644.134 200.444 643.802 200.379 643.398 200.379C643.099 200.379 642.682 200.444 642.148 200.574C641.628 200.704 641.107 200.919 640.586 201.219C640.065 201.518 639.603 201.915 639.199 202.41C638.796 202.892 638.568 203.491 638.516 204.207C638.438 205.171 638.366 205.997 638.301 206.688C638.236 207.365 638.177 207.944 638.125 208.426C638.073 208.895 638.027 209.279 637.988 209.578C637.962 209.878 637.943 210.132 637.93 210.34C637.917 210.392 637.897 210.535 637.871 210.77C637.845 211.004 637.812 211.284 637.773 211.609C637.747 211.935 637.715 212.28 637.676 212.645C637.65 213.009 637.617 213.354 637.578 213.68C637.552 214.005 637.526 214.285 637.5 214.52C637.487 214.754 637.48 214.897 637.48 214.949C637.48 215.053 637.48 215.145 637.48 215.223C637.493 215.288 637.5 215.353 637.5 215.418C637.5 215.522 637.448 215.613 637.344 215.691C637.253 215.757 637.038 215.835 636.699 215.926L631.523 217.703C631.38 217.755 631.191 217.82 630.957 217.898C630.723 217.977 630.495 218.016 630.273 218.016C630.091 218.016 629.928 217.97 629.785 217.879C629.655 217.788 629.59 217.632 629.59 217.41L631.367 197.449C631.406 197.02 631.452 196.727 631.504 196.57C631.569 196.401 631.719 196.29 631.953 196.238C633.138 196.004 634.355 195.77 635.605 195.535C636.855 195.288 638.073 194.975 639.258 194.598C639.362 194.598 639.421 194.617 639.434 194.656C639.46 194.682 639.473 194.728 639.473 194.793C639.473 194.819 639.466 194.858 639.453 194.91C639.453 194.962 639.434 195.079 639.395 195.262C639.368 195.444 639.323 195.724 639.258 196.102C639.206 196.466 639.128 196.98 639.023 197.645C639.922 197.124 640.762 196.707 641.543 196.395C642.337 196.069 643.079 195.822 643.77 195.652C644.473 195.47 645.13 195.353 645.742 195.301C646.354 195.236 646.927 195.203 647.461 195.203C649.297 195.203 650.632 195.763 651.465 196.883C652.298 197.99 652.715 199.656 652.715 201.883C652.715 202.195 652.708 202.521 652.695 202.859C652.682 203.185 652.656 203.523 652.617 203.875L651.719 212.273C651.654 212.82 651.615 213.328 651.602 213.797C651.589 214.253 651.582 214.786 651.582 215.398C651.582 215.503 651.582 215.594 651.582 215.672C651.595 215.737 651.602 215.796 651.602 215.848C651.602 215.965 651.549 216.056 651.445 216.121C651.354 216.186 651.139 216.271 650.801 216.375L646.055 217.703ZM658.398 223.484C658.255 223.406 658.138 223.348 658.047 223.309C657.969 223.283 657.852 223.23 657.695 223.152C657.552 223.074 657.331 222.957 657.031 222.801C656.745 222.658 656.322 222.43 655.762 222.117C655.345 221.896 655.137 221.714 655.137 221.57C655.137 221.531 655.156 221.479 655.195 221.414C655.573 220.828 655.964 220.21 656.367 219.559C656.784 218.921 657.181 218.27 657.559 217.605L655.898 217.586H655.547C655.365 217.586 655.215 217.573 655.098 217.547C654.98 217.534 654.922 217.482 654.922 217.391V217.352C654.974 216.792 655.013 216.355 655.039 216.043C655.078 215.717 655.104 215.47 655.117 215.301C655.13 215.118 655.137 214.988 655.137 214.91C655.15 214.832 655.156 214.76 655.156 214.695C655.169 214.63 655.176 214.552 655.176 214.461C655.189 214.37 655.202 214.214 655.215 213.992C655.228 213.771 655.247 213.471 655.273 213.094C655.312 212.703 655.358 212.189 655.41 211.551C655.436 211.121 655.475 210.822 655.527 210.652C655.592 210.483 655.742 210.385 655.977 210.359C656.562 210.359 657.174 210.359 657.812 210.359C658.451 210.346 659.082 210.34 659.707 210.34C660.345 210.327 660.97 210.32 661.582 210.32C662.207 210.32 662.806 210.32 663.379 210.32C663.6 210.32 663.711 210.477 663.711 210.789L663.359 215.555C663.32 215.854 663.281 216.102 663.242 216.297C663.216 216.492 663.184 216.674 663.145 216.844C663.118 217 663.079 217.156 663.027 217.312C662.988 217.469 662.936 217.651 662.871 217.859C662.793 218.042 662.663 218.276 662.48 218.562C662.298 218.862 662.09 219.181 661.855 219.52C661.621 219.858 661.374 220.197 661.113 220.535C660.866 220.887 660.632 221.212 660.41 221.512C660.189 221.824 659.993 222.091 659.824 222.312C659.655 222.534 659.544 222.684 659.492 222.762C659.453 222.814 659.401 222.879 659.336 222.957C659.284 223.048 659.219 223.133 659.141 223.211C659.062 223.302 658.978 223.38 658.887 223.445C658.796 223.51 658.704 223.543 658.613 223.543C658.548 223.543 658.477 223.523 658.398 223.484ZM684.355 203.68C684.355 204.617 684.453 205.561 684.648 206.512C684.857 207.449 685.195 208.296 685.664 209.051C686.133 209.806 686.751 210.418 687.52 210.887C688.288 211.355 689.238 211.59 690.371 211.59C691.243 211.538 692.005 211.362 692.656 211.062C693.32 210.75 693.887 210.353 694.355 209.871C694.837 209.376 695.234 208.816 695.547 208.191C695.859 207.553 696.107 206.889 696.289 206.199C696.471 205.496 696.595 204.78 696.66 204.051C696.738 203.322 696.777 202.618 696.777 201.941C696.777 201.017 696.654 200.125 696.406 199.266C696.159 198.393 695.788 197.625 695.293 196.961C694.798 196.297 694.18 195.763 693.438 195.359C692.708 194.956 691.855 194.754 690.879 194.754C690.111 194.754 689.414 194.897 688.789 195.184C688.177 195.47 687.63 195.854 687.148 196.336C686.667 196.805 686.25 197.352 685.898 197.977C685.56 198.589 685.273 199.227 685.039 199.891C684.818 200.542 684.648 201.199 684.531 201.863C684.427 202.514 684.368 203.12 684.355 203.68ZM688.164 218.016C686.211 218.016 684.466 217.651 682.93 216.922C681.393 216.193 680.091 215.21 679.023 213.973C677.969 212.723 677.155 211.284 676.582 209.656C676.022 208.016 675.742 206.284 675.742 204.461C675.742 202.417 676.029 200.535 676.602 198.816C677.188 197.085 678.001 195.555 679.043 194.227C680.085 192.885 681.322 191.759 682.754 190.848C684.199 189.923 685.781 189.24 687.5 188.797C687.656 188.797 687.773 188.673 687.852 188.426C687.943 188.178 688.021 187.905 688.086 187.605C688.151 187.306 688.229 187.033 688.32 186.785C688.411 186.538 688.542 186.414 688.711 186.414C691.237 186.674 693.509 187.124 695.527 187.762C697.546 188.387 699.258 189.285 700.664 190.457C702.07 191.629 703.145 193.113 703.887 194.91C704.642 196.694 705.02 198.875 705.02 201.453C705.02 203.107 704.818 204.663 704.414 206.121C704.01 207.579 703.444 208.927 702.715 210.164C701.986 211.388 701.107 212.488 700.078 213.465C699.062 214.428 697.93 215.249 696.68 215.926C695.43 216.603 694.082 217.117 692.637 217.469C691.204 217.833 689.714 218.016 688.164 218.016ZM727.949 214.578C727.91 215.008 727.858 215.307 727.793 215.477C727.728 215.633 727.585 215.737 727.363 215.789C726.257 216.102 725.098 216.421 723.887 216.746C722.689 217.059 721.523 217.475 720.391 217.996C720.352 218.009 720.293 218.016 720.215 218.016C720.111 218.016 720.046 217.99 720.02 217.938C720.007 217.885 720 217.827 720 217.762C720 217.736 720 217.69 720 217.625C720.013 217.56 720.033 217.436 720.059 217.254C720.085 217.085 720.117 216.844 720.156 216.531C720.208 216.219 720.273 215.802 720.352 215.281C718.893 216.232 717.598 216.922 716.465 217.352C715.345 217.794 714.349 218.016 713.477 218.016C711.302 218.016 709.714 217.495 708.711 216.453C707.721 215.398 707.227 213.829 707.227 211.746C707.227 211.368 707.233 210.984 707.246 210.594C707.259 210.19 707.298 209.78 707.363 209.363C707.507 207.827 707.63 206.512 707.734 205.418C707.839 204.311 707.923 203.374 707.988 202.605C708.053 201.837 708.105 201.212 708.145 200.73C708.197 200.236 708.236 199.826 708.262 199.5C708.301 199.174 708.327 198.908 708.34 198.699C708.366 198.478 708.392 198.263 708.418 198.055C708.47 197.638 708.516 197.345 708.555 197.176C708.607 197.007 708.757 196.896 709.004 196.844C709.616 196.727 710.195 196.622 710.742 196.531C711.302 196.427 711.849 196.323 712.383 196.219C712.93 196.102 713.483 195.978 714.043 195.848C714.603 195.717 715.195 195.561 715.82 195.379C715.846 195.379 715.872 195.379 715.898 195.379C715.924 195.366 715.951 195.359 715.977 195.359C716.133 195.359 716.211 195.411 716.211 195.516V195.555C716.159 195.997 716.113 196.414 716.074 196.805C716.035 197.195 715.996 197.599 715.957 198.016C715.918 198.419 715.872 198.855 715.82 199.324C715.781 199.793 715.729 200.34 715.664 200.965C715.599 201.577 715.521 202.286 715.43 203.094C715.339 203.901 715.228 204.839 715.098 205.906C715.02 206.688 714.941 207.469 714.863 208.25C714.785 209.018 714.746 209.734 714.746 210.398C714.746 210.763 714.772 211.102 714.824 211.414C714.876 211.714 714.967 211.974 715.098 212.195C715.241 212.404 715.423 212.566 715.645 212.684C715.866 212.801 716.152 212.859 716.504 212.859C716.777 212.859 717.148 212.801 717.617 212.684C718.086 212.553 718.555 212.339 719.023 212.039C719.492 211.727 719.902 211.323 720.254 210.828C720.618 210.32 720.827 209.682 720.879 208.914C720.97 207.625 721.048 206.551 721.113 205.691C721.191 204.819 721.257 204.09 721.309 203.504C721.361 202.905 721.406 202.404 721.445 202C721.484 201.596 721.517 201.212 721.543 200.848C721.582 200.47 721.615 200.073 721.641 199.656C721.667 199.227 721.693 198.693 721.719 198.055C721.758 197.625 721.803 197.332 721.855 197.176C721.921 197.007 722.07 196.896 722.305 196.844C723.49 196.609 724.701 196.375 725.938 196.141C727.174 195.893 728.385 195.581 729.57 195.203C729.674 195.203 729.733 195.223 729.746 195.262C729.772 195.288 729.785 195.333 729.785 195.398L727.949 214.578ZM748.281 201.102C748.008 201.076 747.702 201.049 747.363 201.023C747.025 200.984 746.667 200.965 746.289 200.965C745.716 200.965 745.13 201.017 744.531 201.121C743.945 201.212 743.398 201.401 742.891 201.688C742.383 201.974 741.947 202.371 741.582 202.879C741.217 203.374 740.983 204.018 740.879 204.812C740.788 205.776 740.71 206.57 740.645 207.195C740.592 207.807 740.553 208.315 740.527 208.719C740.501 209.109 740.475 209.428 740.449 209.676C740.436 209.91 740.423 210.132 740.41 210.34C740.41 210.392 740.397 210.535 740.371 210.77C740.358 211.004 740.332 211.277 740.293 211.59C740.254 211.902 740.215 212.241 740.176 212.605C740.15 212.97 740.117 213.309 740.078 213.621C740.039 213.934 740.007 214.207 739.98 214.441C739.967 214.676 739.961 214.819 739.961 214.871C739.961 214.975 739.961 215.066 739.961 215.145C739.974 215.21 739.98 215.275 739.98 215.34C739.98 215.444 739.928 215.535 739.824 215.613C739.733 215.678 739.518 215.757 739.18 215.848L734.004 217.703C733.861 217.755 733.672 217.82 733.438 217.898C733.203 217.977 732.975 218.016 732.754 218.016C732.572 218.016 732.409 217.97 732.266 217.879C732.135 217.788 732.07 217.632 732.07 217.41L733.75 198.055C733.789 197.625 733.835 197.332 733.887 197.176C733.952 197.007 734.102 196.896 734.336 196.844C735.521 196.609 736.745 196.375 738.008 196.141C739.271 195.893 740.495 195.581 741.68 195.203C741.784 195.203 741.842 195.223 741.855 195.262C741.882 195.288 741.895 195.333 741.895 195.398C741.895 195.424 741.888 195.464 741.875 195.516C741.875 195.568 741.855 195.685 741.816 195.867C741.79 196.049 741.745 196.329 741.68 196.707C741.628 197.072 741.549 197.586 741.445 198.25C742.044 197.781 742.702 197.352 743.418 196.961C744.147 196.57 744.876 196.238 745.605 195.965C746.335 195.678 747.038 195.457 747.715 195.301C748.392 195.132 748.984 195.047 749.492 195.047L748.281 201.102ZM784.277 188.25C784.342 188.237 784.401 188.23 784.453 188.23C784.518 188.217 784.577 188.211 784.629 188.211C784.863 188.211 785.052 188.289 785.195 188.445C785.339 188.589 785.436 188.849 785.488 189.227C785.514 189.461 785.553 189.793 785.605 190.223C785.671 190.639 785.736 191.108 785.801 191.629C785.879 192.137 785.957 192.664 786.035 193.211C786.126 193.758 786.204 194.266 786.27 194.734C786.335 195.19 786.393 195.587 786.445 195.926C786.497 196.251 786.53 196.46 786.543 196.551C786.829 198.855 787.083 200.704 787.305 202.098C787.526 203.491 787.682 204.52 787.773 205.184L789.082 215.75L788.887 216.355C788.861 216.447 788.691 216.557 788.379 216.688C788.066 216.818 787.689 216.954 787.246 217.098C786.803 217.254 786.322 217.404 785.801 217.547C785.28 217.69 784.798 217.82 784.355 217.938C783.913 218.055 783.535 218.146 783.223 218.211C782.923 218.289 782.767 218.328 782.754 218.328C782.441 218.328 782.194 218.1 782.012 217.645C781.829 217.189 781.68 216.609 781.562 215.906C781.445 215.203 781.348 214.435 781.27 213.602C781.204 212.768 781.126 211.967 781.035 211.199C780.957 210.561 780.885 209.917 780.82 209.266C780.755 208.615 780.684 207.951 780.605 207.273L779.844 201.57L772.598 214.832C772.376 215.145 772.155 215.372 771.934 215.516C771.712 215.646 771.504 215.711 771.309 215.711C771.022 215.711 770.794 215.626 770.625 215.457C770.469 215.288 770.358 215.079 770.293 214.832C770.046 214.012 769.831 213.322 769.648 212.762C769.479 212.189 769.316 211.668 769.16 211.199C769.017 210.73 768.88 210.275 768.75 209.832C768.62 209.389 768.47 208.882 768.301 208.309C768.145 207.723 767.962 207.039 767.754 206.258C767.559 205.464 767.318 204.493 767.031 203.348L766.426 206.16L763.613 218.094C763.574 218.25 763.411 218.328 763.125 218.328C762.852 218.328 762.474 218.276 761.992 218.172C761.523 218.068 761.029 217.938 760.508 217.781C760 217.638 759.499 217.482 759.004 217.312C758.522 217.156 758.138 217.013 757.852 216.883C757.786 216.857 757.702 216.798 757.598 216.707C757.507 216.603 757.461 216.447 757.461 216.238C757.461 216.186 757.48 216.076 757.52 215.906C757.559 215.737 757.604 215.542 757.656 215.32C757.721 215.086 757.786 214.852 757.852 214.617C757.93 214.383 758.001 214.174 758.066 213.992C758.236 213.549 758.385 213.029 758.516 212.43C758.659 211.831 758.789 211.225 758.906 210.613C759.023 210.001 759.128 209.415 759.219 208.855C759.323 208.296 759.421 207.827 759.512 207.449L761.914 196.238L762.637 193.074C762.728 192.671 762.812 192.28 762.891 191.902C762.982 191.512 763.06 191.16 763.125 190.848C763.19 190.535 763.242 190.281 763.281 190.086C763.32 189.891 763.34 189.78 763.34 189.754L768.223 188.25C768.405 188.25 768.561 188.27 768.691 188.309C768.835 188.335 768.926 188.439 768.965 188.621L772.852 201.121L778.184 189.891L784.277 188.25ZM792.461 208.719C792.63 206.935 792.799 205.171 792.969 203.426C793.138 201.681 793.288 199.891 793.418 198.055C793.444 197.625 793.483 197.332 793.535 197.176C793.6 197.007 793.75 196.896 793.984 196.844C795.091 196.622 796.25 196.395 797.461 196.16C798.672 195.913 799.844 195.6 800.977 195.223C801.016 195.21 801.074 195.203 801.152 195.203C801.296 195.203 801.367 195.255 801.367 195.359L799.609 214.383C799.57 214.812 799.525 215.112 799.473 215.281C799.421 215.438 799.277 215.542 799.043 215.594C797.936 215.932 796.816 216.31 795.684 216.727C794.551 217.143 793.353 217.566 792.09 217.996C792.051 218.009 791.992 218.016 791.914 218.016C791.771 218.016 791.699 217.951 791.699 217.82C791.699 217.807 791.712 217.632 791.738 217.293C791.764 216.954 791.797 216.518 791.836 215.984C791.888 215.451 791.94 214.852 791.992 214.188C792.044 213.523 792.096 212.859 792.148 212.195C792.214 211.531 792.272 210.893 792.324 210.281C792.376 209.669 792.422 209.148 792.461 208.719ZM793.926 193.133C793.965 192.573 793.991 192.143 794.004 191.844C794.03 191.544 794.049 191.323 794.062 191.18C794.076 191.023 794.082 190.926 794.082 190.887C794.082 190.848 794.082 190.822 794.082 190.809C794.095 190.783 794.102 190.743 794.102 190.691C794.115 190.626 794.128 190.503 794.141 190.32C794.154 190.125 794.173 189.845 794.199 189.48C794.225 189.116 794.264 188.615 794.316 187.977C794.342 187.547 794.382 187.254 794.434 187.098C794.499 186.928 794.648 186.818 794.883 186.766C795.99 186.544 797.148 186.316 798.359 186.082C799.57 185.835 800.742 185.522 801.875 185.145C801.914 185.132 801.973 185.125 802.051 185.125C802.09 185.203 802.142 185.255 802.207 185.281L802.266 185.32L801.836 190.672C801.797 191.102 801.745 191.401 801.68 191.57C801.628 191.74 801.491 191.844 801.27 191.883C800.163 192.091 799.043 192.319 797.91 192.566C796.777 192.814 795.579 193.061 794.316 193.309C794.277 193.322 794.219 193.328 794.141 193.328C793.997 193.328 793.926 193.263 793.926 193.133ZM804.004 211.609C804.004 211.596 803.997 211.59 803.984 211.59C803.984 211.577 803.984 211.564 803.984 211.551C803.984 211.382 804.076 211.297 804.258 211.297C804.375 211.297 804.479 211.342 804.57 211.434C805.091 211.928 805.684 212.332 806.348 212.645C807.025 212.957 807.754 213.113 808.535 213.113C808.743 213.113 808.984 213.094 809.258 213.055C809.531 213.003 809.792 212.924 810.039 212.82C810.286 212.716 810.488 212.579 810.645 212.41C810.814 212.228 810.898 212.007 810.898 211.746C810.898 211.46 810.827 211.199 810.684 210.965C810.54 210.717 810.352 210.516 810.117 210.359C809.987 210.268 809.759 210.112 809.434 209.891C809.108 209.656 808.757 209.409 808.379 209.148C808.014 208.888 807.663 208.641 807.324 208.406C806.999 208.172 806.771 208.003 806.641 207.898C806.055 207.456 805.586 207.007 805.234 206.551C804.896 206.095 804.635 205.626 804.453 205.145C804.271 204.65 804.154 204.135 804.102 203.602C804.049 203.068 804.023 202.501 804.023 201.902C804.023 200.991 804.264 200.132 804.746 199.324C805.228 198.517 805.859 197.807 806.641 197.195C807.435 196.583 808.333 196.102 809.336 195.75C810.339 195.385 811.361 195.203 812.402 195.203C813.262 195.203 814.108 195.333 814.941 195.594C815.775 195.854 816.549 196.297 817.266 196.922C817.331 197.742 817.376 198.549 817.402 199.344C817.428 200.138 817.467 200.971 817.52 201.844C817.52 202.013 817.48 202.13 817.402 202.195C817.324 202.247 817.233 202.273 817.129 202.273C817.038 202.273 816.96 202.241 816.895 202.176C816.595 201.889 816.289 201.609 815.977 201.336C815.664 201.049 815.332 200.802 814.98 200.594C814.642 200.372 814.277 200.197 813.887 200.066C813.496 199.923 813.079 199.852 812.637 199.852C812.363 199.852 812.09 199.878 811.816 199.93C811.543 199.969 811.296 200.053 811.074 200.184C810.853 200.301 810.671 200.464 810.527 200.672C810.397 200.88 810.332 201.147 810.332 201.473C810.332 201.85 810.378 202.176 810.469 202.449C810.56 202.723 810.775 202.99 811.113 203.25L814.746 205.711C815.41 206.167 815.944 206.616 816.348 207.059C816.764 207.488 817.09 207.918 817.324 208.348C817.559 208.777 817.715 209.207 817.793 209.637C817.884 210.053 817.93 210.47 817.93 210.887C817.93 212.059 817.656 213.094 817.109 213.992C816.576 214.878 815.879 215.62 815.02 216.219C814.16 216.805 813.184 217.247 812.09 217.547C811.009 217.859 809.922 218.016 808.828 218.016C807.995 218.016 807.188 217.924 806.406 217.742C805.638 217.573 804.922 217.306 804.258 216.941L804.004 211.609ZM820.84 211.609C820.84 211.596 820.833 211.59 820.82 211.59C820.82 211.577 820.82 211.564 820.82 211.551C820.82 211.382 820.911 211.297 821.094 211.297C821.211 211.297 821.315 211.342 821.406 211.434C821.927 211.928 822.52 212.332 823.184 212.645C823.861 212.957 824.59 213.113 825.371 213.113C825.579 213.113 825.82 213.094 826.094 213.055C826.367 213.003 826.628 212.924 826.875 212.82C827.122 212.716 827.324 212.579 827.48 212.41C827.65 212.228 827.734 212.007 827.734 211.746C827.734 211.46 827.663 211.199 827.52 210.965C827.376 210.717 827.188 210.516 826.953 210.359C826.823 210.268 826.595 210.112 826.27 209.891C825.944 209.656 825.592 209.409 825.215 209.148C824.85 208.888 824.499 208.641 824.16 208.406C823.835 208.172 823.607 208.003 823.477 207.898C822.891 207.456 822.422 207.007 822.07 206.551C821.732 206.095 821.471 205.626 821.289 205.145C821.107 204.65 820.99 204.135 820.938 203.602C820.885 203.068 820.859 202.501 820.859 201.902C820.859 200.991 821.1 200.132 821.582 199.324C822.064 198.517 822.695 197.807 823.477 197.195C824.271 196.583 825.169 196.102 826.172 195.75C827.174 195.385 828.197 195.203 829.238 195.203C830.098 195.203 830.944 195.333 831.777 195.594C832.611 195.854 833.385 196.297 834.102 196.922C834.167 197.742 834.212 198.549 834.238 199.344C834.264 200.138 834.303 200.971 834.355 201.844C834.355 202.013 834.316 202.13 834.238 202.195C834.16 202.247 834.069 202.273 833.965 202.273C833.874 202.273 833.796 202.241 833.73 202.176C833.431 201.889 833.125 201.609 832.812 201.336C832.5 201.049 832.168 200.802 831.816 200.594C831.478 200.372 831.113 200.197 830.723 200.066C830.332 199.923 829.915 199.852 829.473 199.852C829.199 199.852 828.926 199.878 828.652 199.93C828.379 199.969 828.132 200.053 827.91 200.184C827.689 200.301 827.507 200.464 827.363 200.672C827.233 200.88 827.168 201.147 827.168 201.473C827.168 201.85 827.214 202.176 827.305 202.449C827.396 202.723 827.611 202.99 827.949 203.25L831.582 205.711C832.246 206.167 832.78 206.616 833.184 207.059C833.6 207.488 833.926 207.918 834.16 208.348C834.395 208.777 834.551 209.207 834.629 209.637C834.72 210.053 834.766 210.47 834.766 210.887C834.766 212.059 834.492 213.094 833.945 213.992C833.411 214.878 832.715 215.62 831.855 216.219C830.996 216.805 830.02 217.247 828.926 217.547C827.845 217.859 826.758 218.016 825.664 218.016C824.831 218.016 824.023 217.924 823.242 217.742C822.474 217.573 821.758 217.306 821.094 216.941L820.84 211.609ZM838.086 208.719C838.255 206.935 838.424 205.171 838.594 203.426C838.763 201.681 838.913 199.891 839.043 198.055C839.069 197.625 839.108 197.332 839.16 197.176C839.225 197.007 839.375 196.896 839.609 196.844C840.716 196.622 841.875 196.395 843.086 196.16C844.297 195.913 845.469 195.6 846.602 195.223C846.641 195.21 846.699 195.203 846.777 195.203C846.921 195.203 846.992 195.255 846.992 195.359L845.234 214.383C845.195 214.812 845.15 215.112 845.098 215.281C845.046 215.438 844.902 215.542 844.668 215.594C843.561 215.932 842.441 216.31 841.309 216.727C840.176 217.143 838.978 217.566 837.715 217.996C837.676 218.009 837.617 218.016 837.539 218.016C837.396 218.016 837.324 217.951 837.324 217.82C837.324 217.807 837.337 217.632 837.363 217.293C837.389 216.954 837.422 216.518 837.461 215.984C837.513 215.451 837.565 214.852 837.617 214.188C837.669 213.523 837.721 212.859 837.773 212.195C837.839 211.531 837.897 210.893 837.949 210.281C838.001 209.669 838.047 209.148 838.086 208.719ZM839.551 193.133C839.59 192.573 839.616 192.143 839.629 191.844C839.655 191.544 839.674 191.323 839.688 191.18C839.701 191.023 839.707 190.926 839.707 190.887C839.707 190.848 839.707 190.822 839.707 190.809C839.72 190.783 839.727 190.743 839.727 190.691C839.74 190.626 839.753 190.503 839.766 190.32C839.779 190.125 839.798 189.845 839.824 189.48C839.85 189.116 839.889 188.615 839.941 187.977C839.967 187.547 840.007 187.254 840.059 187.098C840.124 186.928 840.273 186.818 840.508 186.766C841.615 186.544 842.773 186.316 843.984 186.082C845.195 185.835 846.367 185.522 847.5 185.145C847.539 185.132 847.598 185.125 847.676 185.125C847.715 185.203 847.767 185.255 847.832 185.281L847.891 185.32L847.461 190.672C847.422 191.102 847.37 191.401 847.305 191.57C847.253 191.74 847.116 191.844 846.895 191.883C845.788 192.091 844.668 192.319 843.535 192.566C842.402 192.814 841.204 193.061 839.941 193.309C839.902 193.322 839.844 193.328 839.766 193.328C839.622 193.328 839.551 193.263 839.551 193.133ZM860.273 218.016C858.438 218.016 856.823 217.716 855.43 217.117C854.049 216.518 852.891 215.724 851.953 214.734C851.016 213.732 850.312 212.586 849.844 211.297C849.375 209.995 849.141 208.647 849.141 207.254C849.141 205.861 849.368 204.539 849.824 203.289C850.28 202.026 850.918 200.9 851.738 199.91C852.559 198.908 853.542 198.074 854.688 197.41C855.833 196.733 857.096 196.277 858.477 196.043C858.685 196.03 858.789 195.984 858.789 195.906C858.789 195.763 858.77 195.633 858.73 195.516C858.704 195.385 858.691 195.275 858.691 195.184C858.691 195.04 858.717 194.943 858.77 194.891C858.822 194.839 858.88 194.812 858.945 194.812C861.432 194.812 863.548 195.099 865.293 195.672C867.038 196.232 868.457 197 869.551 197.977C870.645 198.953 871.439 200.105 871.934 201.434C872.428 202.762 872.676 204.188 872.676 205.711C872.676 207.651 872.35 209.383 871.699 210.906C871.048 212.43 870.156 213.719 869.023 214.773C867.904 215.828 866.589 216.629 865.078 217.176C863.581 217.736 861.979 218.016 860.273 218.016ZM856.66 207.039C856.66 207.742 856.732 208.439 856.875 209.129C857.031 209.819 857.279 210.444 857.617 211.004C857.969 211.564 858.424 212.02 858.984 212.371C859.544 212.71 860.241 212.879 861.074 212.879C861.673 212.853 862.194 212.723 862.637 212.488C863.092 212.241 863.483 211.928 863.809 211.551C864.134 211.16 864.401 210.724 864.609 210.242C864.831 209.76 865 209.266 865.117 208.758C865.247 208.237 865.339 207.729 865.391 207.234C865.443 206.74 865.469 206.29 865.469 205.887C865.469 205.21 865.365 204.546 865.156 203.895C864.961 203.243 864.668 202.671 864.277 202.176C863.887 201.681 863.398 201.284 862.812 200.984C862.24 200.672 861.576 200.516 860.82 200.516C860.039 200.516 859.382 200.75 858.848 201.219C858.314 201.674 857.884 202.241 857.559 202.918C857.246 203.595 857.018 204.311 856.875 205.066C856.732 205.809 856.66 206.466 856.66 207.039ZM891.406 217.703C891.263 217.742 891.074 217.801 890.84 217.879C890.605 217.97 890.378 218.016 890.156 218.016C889.974 218.016 889.811 217.97 889.668 217.879C889.538 217.788 889.473 217.632 889.473 217.41V217.293C889.551 216.59 889.616 215.997 889.668 215.516C889.72 215.021 889.766 214.578 889.805 214.188C889.857 213.784 889.896 213.387 889.922 212.996C889.961 212.592 890.007 212.13 890.059 211.609C890.111 211.076 890.169 210.451 890.234 209.734C890.312 209.005 890.404 208.1 890.508 207.02C890.573 206.355 890.632 205.678 890.684 204.988C890.736 204.298 890.762 203.66 890.762 203.074C890.762 202.684 890.729 202.326 890.664 202C890.612 201.661 890.508 201.375 890.352 201.141C890.208 200.893 890.007 200.704 889.746 200.574C889.486 200.444 889.154 200.379 888.75 200.379C888.451 200.379 888.034 200.444 887.5 200.574C886.979 200.704 886.458 200.919 885.938 201.219C885.417 201.518 884.954 201.915 884.551 202.41C884.147 202.892 883.919 203.491 883.867 204.207C883.789 205.171 883.717 205.997 883.652 206.688C883.587 207.365 883.529 207.944 883.477 208.426C883.424 208.895 883.379 209.279 883.34 209.578C883.314 209.878 883.294 210.132 883.281 210.34C883.268 210.392 883.249 210.535 883.223 210.77C883.197 211.004 883.164 211.284 883.125 211.609C883.099 211.935 883.066 212.28 883.027 212.645C883.001 213.009 882.969 213.354 882.93 213.68C882.904 214.005 882.878 214.285 882.852 214.52C882.839 214.754 882.832 214.897 882.832 214.949C882.832 215.053 882.832 215.145 882.832 215.223C882.845 215.288 882.852 215.353 882.852 215.418C882.852 215.522 882.799 215.613 882.695 215.691C882.604 215.757 882.389 215.835 882.051 215.926L876.875 217.703C876.732 217.755 876.543 217.82 876.309 217.898C876.074 217.977 875.846 218.016 875.625 218.016C875.443 218.016 875.28 217.97 875.137 217.879C875.007 217.788 874.941 217.632 874.941 217.41L876.719 197.449C876.758 197.02 876.803 196.727 876.855 196.57C876.921 196.401 877.07 196.29 877.305 196.238C878.49 196.004 879.707 195.77 880.957 195.535C882.207 195.288 883.424 194.975 884.609 194.598C884.714 194.598 884.772 194.617 884.785 194.656C884.811 194.682 884.824 194.728 884.824 194.793C884.824 194.819 884.818 194.858 884.805 194.91C884.805 194.962 884.785 195.079 884.746 195.262C884.72 195.444 884.674 195.724 884.609 196.102C884.557 196.466 884.479 196.98 884.375 197.645C885.273 197.124 886.113 196.707 886.895 196.395C887.689 196.069 888.431 195.822 889.121 195.652C889.824 195.47 890.482 195.353 891.094 195.301C891.706 195.236 892.279 195.203 892.812 195.203C894.648 195.203 895.983 195.763 896.816 196.883C897.65 197.99 898.066 199.656 898.066 201.883C898.066 202.195 898.06 202.521 898.047 202.859C898.034 203.185 898.008 203.523 897.969 203.875L897.07 212.273C897.005 212.82 896.966 213.328 896.953 213.797C896.94 214.253 896.934 214.786 896.934 215.398C896.934 215.503 896.934 215.594 896.934 215.672C896.947 215.737 896.953 215.796 896.953 215.848C896.953 215.965 896.901 216.056 896.797 216.121C896.706 216.186 896.491 216.271 896.152 216.375L891.406 217.703Z" fill="#1A75B9"/>
</g>
<defs>
<clipPath id="clip0_3_2">
<rect width="1144" height="339" fill="white"/>
</clipPath>
</defs>
</svg>
