<svg width="232" height="314" viewBox="0 0 232 314" fill="none" xmlns="http://www.w3.org/2000/svg">
<path d="M116.223 88L232 145.722V261.165L120.612 314V153.662L159.633 185.424V264.83L167.437 259.943V189.395L192.269 209.857L192.979 248.949L200.073 245.895L200.783 160.992L114.936 118.846L30.5076 160.381V246.505L39.0214 248.949L39.7309 209.857L63.8532 190.616V260.554L71.6575 264.219L72.367 185.424L110.679 153.662V314L0 261.165V145.722L116.223 88Z" fill="#1A75B9"/>
<path d="M116.223 43.78L232 101.501V127.501L114.936 74.6259L0 131.501V101.501L116.223 43.78Z" fill="#1A75B9"/>
<path d="M116.223 -2.47955e-05L232 57.7215V83.7214L114.936 30.8458L0 87.7214V57.7215L116.223 -2.47955e-05Z" fill="#1A75B9"/>
<path d="M192.126 209.857L167.051 188.784V260.249L193.201 248.949L192.126 209.857Z" fill="#FF1E1E"/>
<path d="M160.245 185.424L120.125 153.357L120.834 282.238L159.855 264.525L160.245 185.424Z" fill="#FF1E1E"/>
<path d="M39.5989 209.857L64.4307 190.005V260.554L38.5347 248.949L39.5989 209.857Z" fill="#FF1E1E"/>
<path d="M72.5897 184.508L110.901 153.357V282.849L71.1707 263.914L72.5897 184.508Z" fill="#FF1E1E"/>
</svg>
